<svg width="512" height="512" viewBox="0 0 512 512" fill="none" xmlns="http://www.w3.org/2000/svg">
<g clip-path="url(#clip0_1424_101)">
<path d="M135.081 355.219L113.689 243.981C78.708 243.579 49.522 219.064 42 186.27L74.081 355.219C80.419 388.178 109.258 412 142.821 412H203.821C170.258 412 141.419 388.178 135.081 355.219Z" fill="#CEE1F2"/>
<path d="M447 492C447 503.046 438.046 512 427 512H84.9999C58.4639 510.944 58.4839 473.047 84.9999 472H427C438.046 472 447 480.954 447 492ZM507.619 107.886L457.79 359.486C449.468 401.503 412.338 432 369.504 432H142.864C99.7559 432 62.5809 401.271 54.4709 358.932L6.35688 107.763C4.27888 96.915 11.3889 86.435 22.2369 84.357C33.0849 82.28 43.5639 89.389 45.6429 100.237L56.6219 157.554C86.9979 258.704 233.984 238.337 236 132.591V100C237.056 73.464 274.953 73.484 276 100V132.591C278.86 241.889 430.28 257.459 457.506 153.13C457.757 152.038 468.381 100.114 468.381 100.114C470.527 89.279 481.045 82.23 491.885 84.381C502.721 86.527 509.765 97.05 507.619 107.886ZM440.232 242.243C379.271 283.393 292.914 263.449 256 202.215C219.425 262.934 133.6 283.405 72.9429 242.753L93.7569 351.407C98.2619 374.928 118.915 392 142.864 392H369.504C393.301 392 413.928 375.057 418.551 351.714L440.232 242.243ZM143 50C156.807 50 168 38.807 168 25C166.683 -8.16204 119.312 -8.15304 118 25C118 38.807 129.193 50 143 50ZM369 50C382.807 50 394 38.807 394 25C392.683 -8.16204 345.312 -8.15304 344 25C344 38.807 355.193 50 369 50ZM336.432 177.315C345.342 183.659 357.888 181.64 364.315 172.568C365.85 170.403 367.424 168.061 369 165.549C370.576 168.061 372.15 170.403 373.685 172.567C389.894 193.603 420.798 171.667 406.315 149.431C395.149 133.684 389 116.129 389 100C389 88.954 380.046 80 369 80C357.954 80 349 88.954 349 100C349 116.129 342.851 133.685 331.685 149.432C325.296 158.442 327.421 170.926 336.432 177.315ZM110.432 177.315C119.443 183.704 131.926 181.579 138.315 172.568C139.85 170.403 141.424 168.062 143 165.55C144.576 168.061 146.15 170.404 147.685 172.569C154.113 181.641 166.658 183.659 175.568 177.316C184.578 170.927 186.704 158.443 180.315 149.433C169.149 133.685 163 116.129 163 100C163 88.954 154.046 80 143 80C131.954 80 123 88.954 123 100C123 116.129 116.851 133.684 105.685 149.432C99.2959 158.443 101.421 170.926 110.432 177.315Z" fill="#303030"/>
<path d="M487 0C500.807 0 512 11.193 512 25C512 38.807 500.807 50 487 50C473.193 50 462 38.807 462 25C462 11.193 473.193 0 487 0ZM257 0C243.193 0 232 11.193 232 25C232 38.807 243.193 50 257 50C270.807 50 282 38.807 282 25C282 11.193 270.807 0 257 0ZM0 25C0 38.807 11.193 50 25 50C38.807 50 50 38.807 50 25C50 11.193 38.807 0 25 0C11.193 0 0 11.193 0 25ZM358 298C344.193 298 333 309.193 333 323C333 336.807 344.193 348 358 348C371.807 348 383 336.807 383 323C383 309.193 371.807 298 358 298ZM153 298C139.193 298 128 309.193 128 323C128 336.807 139.193 348 153 348C166.807 348 178 336.807 178 323C178 309.193 166.807 298 153 298ZM257 298C243.193 298 232 309.193 232 323C232 336.807 243.193 348 257 348C270.807 348 282 336.807 282 323C282 309.193 270.807 298 257 298Z" fill="#FF6229"/>
</g>
<defs>
<clipPath id="clip0_1424_101">
<rect width="512" height="512" fill="white"/>
</clipPath>
</defs>
</svg>
