<svg width="512" height="512" viewBox="0 0 512 512" fill="none" xmlns="http://www.w3.org/2000/svg">
<path d="M180 426C164.595 331.469 144.722 241.551 96.2871 159.629L101.606 168C119.418 205.206 155.964 234.454 197.859 248.969L251 279C212 279 200 304 200 426H180ZM236 100C236 66.43 256.687 37.708 286 25.837C276.733 22.085 266.613 20 256 20C211.817 20 176 55.817 176 100C176 144.183 211.817 180 256 180C266.613 180 276.733 177.915 286 174.163C256.687 162.292 236 133.57 236 100Z" fill="#CEE1F2"/>
<path d="M448.521 145.273C387.293 235.003 366.461 338.888 351.74 429.217C350.014 440.177 339.438 447.554 328.783 445.74C317.881 443.963 310.484 433.685 312.26 422.783C320.916 369.668 331.637 312.009 351.038 254.568C291.364 286.919 220.634 286.919 160.961 254.568C180.362 312.009 191.083 369.669 199.739 422.784C201.515 433.686 194.118 443.964 183.216 445.741C172.56 447.555 161.986 440.179 160.259 429.218C145.538 338.889 124.706 235.005 63.4776 145.274C57.2516 136.149 59.6016 123.706 68.7256 117.481C77.8516 111.256 90.2936 113.606 96.5186 122.729C103.691 133.24 118.808 157.618 119.644 159.366C173.923 264.642 338.135 264.568 392.352 159.365C393.189 157.618 408.305 133.24 415.477 122.729C421.703 113.605 434.145 111.256 443.27 117.481C452.396 123.705 454.746 136.148 448.521 145.273ZM156 100C156 44.86 200.86 0 256 0C388.664 5.493 388.625 194.527 255.999 200C200.86 200 156 155.14 156 100ZM196 100C196 133.084 222.916 160 256 160C335.598 156.704 335.575 43.284 256 40C222.916 40 196 66.916 196 100Z" fill="#303030"/>
<path d="M382 512H130C103.464 510.944 103.484 473.047 130 472H382C408.536 473.056 408.516 510.953 382 512Z" fill="#FF6229"/>
</svg>
