<svg width="30" height="30" viewBox="0 0 30 30" fill="none" xmlns="http://www.w3.org/2000/svg">
<g opacity="0.7" clip-path="url(#clip0_384_3039)">
<path d="M26.7851 16.3493C24.5445 16.0111 22.6674 14.5701 21.7225 12.595C21.6909 12.5982 21.6625 12.5982 21.634 12.5982C17.9145 12.5982 14.9061 9.58654 14.9061 5.87336C14.9061 5.08016 15.0451 4.31857 15.2979 3.6107C15.5444 2.92493 15.0704 2.1823 14.3404 2.17914H14.2709C6.4874 2.17914 0.236627 8.75858 0.783328 16.659C1.25419 23.4628 6.8603 28.9141 13.6736 29.2079C20.7966 29.5145 26.7661 24.3097 27.6762 17.5027C27.7521 16.9434 27.3444 16.4314 26.7851 16.3493ZM6.2978 18.9596C6.17455 19.0765 6.01654 19.1334 5.8617 19.1334C5.6942 19.1334 5.52672 19.0702 5.40347 18.9406L4.45226 17.9451C4.21209 17.6923 4.22158 17.291 4.47439 17.0508C4.72719 16.8106 5.12854 16.8201 5.36872 17.0729L6.31676 18.0652C6.56008 18.318 6.55061 18.7194 6.2978 18.9596ZM8.06432 12.8036C7.22372 12.8036 6.53796 12.121 6.53796 11.2772C6.53796 10.4366 7.22372 9.75087 8.06432 9.75087C8.90807 9.75087 9.59068 10.4366 9.59068 11.2772C9.59068 12.121 8.90807 12.8036 8.06432 12.8036ZM10.7884 5.40883L11.8217 5.1402C12.1599 5.05173 12.5043 5.25082 12.5928 5.58894C12.6845 5.92708 12.4822 6.27154 12.1441 6.36002L11.1075 6.6318C11.0538 6.6476 11.0001 6.65393 10.9495 6.65393C10.6683 6.65393 10.4123 6.46431 10.3365 6.18305C10.248 5.84493 10.4502 5.4973 10.7884 5.40883ZM11.9829 26.5408C11.1486 26.5408 10.4724 25.8645 10.4724 25.0302C10.4724 24.1991 11.1486 23.5228 11.9829 23.5228C12.8172 23.5228 13.4935 24.1991 13.4935 25.0302C13.4935 25.8645 12.8172 26.5408 11.9829 26.5408ZM15.3453 17.0287C15.2568 17.291 15.0103 17.4553 14.748 17.4553C14.6785 17.4553 14.6122 17.4458 14.5458 17.4237L13.2881 16.9971C12.9594 16.8865 12.7824 16.5294 12.893 16.1976C13.0068 15.8658 13.3639 15.6888 13.6957 15.8026L14.9503 16.226C15.279 16.3366 15.4591 16.6969 15.3453 17.0287ZM18.3443 18.2138C18.3443 17.4458 18.9668 16.8233 19.7348 16.8233C20.5027 16.8233 21.1252 17.4458 21.1252 18.2138C21.1252 18.9817 20.5027 19.6042 19.7348 19.6042C18.9668 19.6042 18.3443 18.9817 18.3443 18.2138ZM22.2692 25.0302C22.146 25.1693 21.9753 25.2388 21.8015 25.2388C21.6498 25.2388 21.4981 25.1851 21.378 25.0776L20.7018 24.4645C20.4426 24.2307 20.4237 23.8325 20.6575 23.5734C20.8914 23.3142 21.2927 23.2953 21.5487 23.5291L22.225 24.139C22.4841 24.3729 22.5062 24.7711 22.2692 25.0302Z" fill="#FF6229"/>
<path d="M21.1103 5.18443C22.3111 4.73253 23.5531 3.46847 23.6668 2.98179C23.9449 1.79674 22.5229 0.779175 21.1103 0.779175C19.6977 0.779175 18.5537 1.76514 18.5537 2.98179C18.5537 4.19846 19.7862 5.67741 21.1103 5.18443Z" fill="#FF6229"/>
<path d="M25.6888 7.69676C24.8703 8.17079 24.3552 9.57706 25.2021 10.2754C25.97 10.9075 27.3068 11.2488 27.6765 11.1382C28.5803 10.8632 28.713 9.51069 28.1632 8.55948C27.6133 7.61144 26.5072 7.22274 25.6888 7.69676Z" fill="#FF6229"/>
<path d="M28.2018 2.26129C27.6203 2.26129 27.1494 2.73215 27.1494 3.31047C27.1494 3.89192 27.6203 4.3628 28.2018 4.3628C28.78 4.3628 29.2509 3.89192 29.2509 3.31047C29.2509 2.73215 28.78 2.26129 28.2018 2.26129Z" fill="#FF6229"/>
</g>
<defs>
<clipPath id="clip0_384_3039">
<rect width="30" height="30" fill="white"/>
</clipPath>
</defs>
</svg>
