<svg width="24" height="24" viewBox="0 0 24 24" fill="none" xmlns="http://www.w3.org/2000/svg">
<path d="M12.5932 23.2584L12.5822 23.2604L12.5112 23.2954L12.4912 23.2994L12.4772 23.2954L12.4062 23.2604C12.3955 23.2571 12.3875 23.2588 12.3822 23.2654L12.3782 23.2754L12.3612 23.7034L12.3662 23.7234L12.3762 23.7364L12.4802 23.8104L12.4952 23.8144L12.5072 23.8104L12.6112 23.7364L12.6232 23.7204L12.6272 23.7034L12.6102 23.2764C12.6075 23.2658 12.6018 23.2598 12.5932 23.2584ZM12.8582 23.1454L12.8452 23.1474L12.6602 23.2404L12.6502 23.2504L12.6472 23.2614L12.6652 23.6914L12.6702 23.7034L12.6782 23.7104L12.8792 23.8034C12.8918 23.8068 12.9015 23.8041 12.9082 23.7954L12.9122 23.7814L12.8782 23.1674C12.8748 23.1554 12.8682 23.1481 12.8582 23.1454ZM12.1432 23.1474C12.1388 23.1448 12.1335 23.1439 12.1285 23.145C12.1234 23.1461 12.119 23.1491 12.1162 23.1534L12.1102 23.1674L12.0762 23.7814C12.0768 23.7934 12.0825 23.8014 12.0932 23.8054L12.1082 23.8034L12.3092 23.7104L12.3192 23.7024L12.3232 23.6914L12.3402 23.2614L12.3372 23.2494L12.3272 23.2394L12.1432 23.1474Z" fill="#6000C7"/>
<path d="M16 14C17.3261 14 18.5979 14.5268 19.5355 15.4645C20.4732 16.4021 21 17.6739 21 19V20C21 20.5304 20.7893 21.0391 20.4142 21.4142C20.0391 21.7893 19.5304 22 19 22H5C4.46957 22 3.96086 21.7893 3.58579 21.4142C3.21071 21.0391 3 20.5304 3 20V19C3 17.6739 3.52678 16.4021 4.46447 15.4645C5.40215 14.5268 6.67392 14 8 14H16ZM21.414 9.081C21.5935 8.89975 21.8356 8.79397 22.0905 8.78532C22.3455 8.77667 22.5942 8.8658 22.7856 9.03447C22.977 9.20313 23.0967 9.43858 23.1202 9.69262C23.1437 9.94666 23.0692 10.2001 22.912 10.401L22.828 10.496L20 13.324C19.8278 13.4962 19.5987 13.5996 19.3557 13.6149C19.1127 13.6302 18.8724 13.5563 18.68 13.407L18.586 13.324L17.172 11.91C16.9907 11.7305 16.885 11.4884 16.8763 11.2335C16.8677 10.9785 16.9568 10.7298 17.1255 10.5384C17.2941 10.347 17.5296 10.2273 17.7836 10.2038C18.0377 10.1803 18.2911 10.2548 18.492 10.412L18.586 10.496L19.293 11.203L21.414 9.081ZM12 2C13.3261 2 14.5979 2.52678 15.5355 3.46447C16.4732 4.40215 17 5.67392 17 7C17 8.32608 16.4732 9.59785 15.5355 10.5355C14.5979 11.4732 13.3261 12 12 12C10.6739 12 9.40215 11.4732 8.46447 10.5355C7.52678 9.59785 7 8.32608 7 7C7 5.67392 7.52678 4.40215 8.46447 3.46447C9.40215 2.52678 10.6739 2 12 2Z" fill="#6000C7"/>
</svg>
