<svg width="40" height="40" viewBox="0 0 40 40" fill="none" xmlns="http://www.w3.org/2000/svg">
<rect width="40" height="40" rx="20" fill="#FF8D29"/>
<path d="M30 19.375H28.75C28.4 19.375 28.125 19.65 28.125 20C28.125 20.35 28.4 20.625 28.75 20.625H30C30.35 20.625 30.625 20.35 30.625 20C30.625 19.65 30.35 19.375 30 19.375Z" fill="white"/>
<path d="M11.25 19.375H10C9.65 19.375 9.375 19.65 9.375 20C9.375 20.35 9.65 20.625 10 20.625H11.25C11.6 20.625 11.875 20.35 11.875 20C11.875 19.65 11.6 19.375 11.25 19.375Z" fill="white"/>
<path d="M26.6258 25.75C26.3758 25.5 25.9883 25.5 25.7383 25.75C25.4883 26 25.4883 26.3875 25.7383 26.6375L26.6258 27.525C26.8758 27.775 27.2633 27.775 27.5133 27.525C27.7633 27.275 27.7633 26.8875 27.5133 26.6375L26.6258 25.75Z" fill="white"/>
<path d="M14.2496 13.375L13.3621 12.4875C13.1121 12.2375 12.7246 12.2375 12.4746 12.4875C12.2246 12.7375 12.2246 13.125 12.4746 13.375L13.3621 14.2625C13.6121 14.5125 13.9996 14.5125 14.2496 14.2625C14.4996 14.0125 14.4996 13.625 14.2496 13.375Z" fill="white"/>
<path d="M14.2496 25.75C13.9996 25.5 13.6121 25.5 13.3621 25.75L12.4746 26.6375C12.2246 26.8875 12.2246 27.275 12.4746 27.525C12.7246 27.775 13.1121 27.775 13.3621 27.525L14.2496 26.6375C14.4996 26.3875 14.4996 26 14.2496 25.75Z" fill="white"/>
<path d="M26.6258 12.4875L25.7383 13.375C25.4883 13.625 25.4883 14.0125 25.7383 14.2625C25.9883 14.5125 26.3758 14.5125 26.6258 14.2625L27.5133 13.375C27.7633 13.125 27.7633 12.7375 27.5133 12.4875C27.2633 12.2375 26.8758 12.2375 26.6258 12.4875Z" fill="white"/>
<path d="M20.1379 10.5875L14.7879 19.15C14.4254 19.725 14.5879 20.475 15.1504 20.85L18.1129 22.825V28.9C18.1129 29.85 19.3504 30.1875 19.8504 29.4L25.2004 20.8375C25.5629 20.2625 25.4004 19.5125 24.8379 19.1375L21.8754 17.1625V11.0875C21.8754 10.1375 20.6379 9.8 20.1379 10.5875Z" fill="white"/>
</svg>
