<svg width="18" height="18" viewBox="0 0 18 18" fill="none" xmlns="http://www.w3.org/2000/svg">
<path fill-rule="evenodd" clip-rule="evenodd" d="M6.75004 6C6.75004 5.40326 6.9871 4.83097 7.40905 4.40901C7.83101 3.98705 8.40331 3.75 9.00004 3.75C9.59678 3.75 10.1691 3.98705 10.591 4.40901C11.013 4.83097 11.25 5.40326 11.25 6H6.75004ZM5.25004 6C5.25004 5.00544 5.64513 4.05161 6.34839 3.34835C7.05165 2.64509 8.00548 2.25 9.00004 2.25C9.99461 2.25 10.9484 2.64509 11.6517 3.34835C12.355 4.05161 12.75 5.00544 12.75 6H15C15.1042 5.99999 15.2073 6.02169 15.3026 6.06372C15.3979 6.10574 15.4835 6.16717 15.5538 6.24408C15.624 6.32099 15.6775 6.4117 15.7108 6.51043C15.7441 6.60916 15.7564 6.71374 15.747 6.8175L15.1208 13.704C15.0699 14.263 14.8119 14.7828 14.3974 15.1614C13.9829 15.5399 13.4419 15.7499 12.8805 15.75H5.11954C4.55821 15.7499 4.01719 15.5399 3.6027 15.1614C3.18821 14.7828 2.93019 14.263 2.87929 13.704L2.25304 6.8175C2.24367 6.71374 2.25601 6.60916 2.28929 6.51043C2.32257 6.4117 2.37605 6.32099 2.44633 6.24408C2.51661 6.16717 2.60215 6.10574 2.69748 6.06372C2.79281 6.02169 2.89586 5.99999 3.00004 6H5.25004Z" fill="#31B269"/>
</svg>
