<svg width="32" height="36" viewBox="0 0 32 36" fill="none" xmlns="http://www.w3.org/2000/svg">
<path d="M6.85714 15.75C6.05143 15.75 5.28929 15.9117 4.57143 16.1648V15.75C4.57143 13.268 6.62143 11.25 9.14286 11.25C10.405 11.25 11.4286 10.2424 11.4286 9C11.4286 7.75758 10.4071 6.75 9.14286 6.75C4.10143 6.75 0 10.7859 0 15.75V22.5C0 26.228 3.07 29.25 6.85714 29.25C10.6443 29.25 13.7143 26.228 13.7143 22.5C13.7143 18.772 10.6429 15.75 6.85714 15.75ZM25.1429 15.75C24.3371 15.75 23.575 15.9121 22.8571 16.1634V15.75C22.8571 13.268 24.9071 11.25 27.4286 11.25C28.6907 11.25 29.7143 10.2424 29.7143 9C29.7143 7.75758 28.6907 6.75 27.4286 6.75C22.3871 6.75 18.2857 10.7873 18.2857 15.75V22.5C18.2857 26.228 21.3557 29.25 25.1429 29.25C28.93 29.25 32 26.228 32 22.5C32 18.772 28.9286 15.75 25.1429 15.75Z" fill="white"/>
</svg>
