<svg width="18" height="18" viewBox="0 0 18 18" fill="none" xmlns="http://www.w3.org/2000/svg">
<path fill-rule="evenodd" clip-rule="evenodd" d="M5.99976 3.00001C5.20411 3.00001 4.44104 3.31608 3.87844 3.87869C3.31583 4.4413 2.99976 5.20436 2.99976 6.00001C2.99976 6.79566 3.31583 7.55872 3.87844 8.12133C4.44104 8.68394 5.20411 9.00001 5.99976 9.00001C6.7954 9.00001 7.55847 8.68394 8.12108 8.12133C8.68368 7.55872 8.99976 6.79566 8.99976 6.00001C8.99976 5.20436 8.68368 4.4413 8.12108 3.87869C7.55847 3.31608 6.7954 3.00001 5.99976 3.00001ZM4.49976 9.75001C3.70411 9.75001 2.94104 10.0661 2.37844 10.6287C1.81583 11.1913 1.49976 11.9544 1.49976 12.75V13.5C1.49976 13.8978 1.65779 14.2794 1.9391 14.5607C2.2204 14.842 2.60193 15 2.99976 15H8.99976C9.39758 15 9.77911 14.842 10.0604 14.5607C10.3417 14.2794 10.4998 13.8978 10.4998 13.5V12.75C10.4998 11.9544 10.1837 11.1913 9.62108 10.6287C9.05847 10.0661 8.2954 9.75001 7.49976 9.75001H4.49976ZM9.93726 8.17876C10.2958 7.53376 10.4998 6.79126 10.4998 6.00001C10.4999 5.23759 10.3064 4.48763 9.93726 3.82051C10.3631 3.41756 10.8977 3.14822 11.475 3.04578C12.0523 2.94335 12.6469 3.0123 13.1854 3.24412C13.7239 3.47595 14.1827 3.86048 14.505 4.3502C14.8274 4.83991 14.9992 5.41335 14.9992 5.99964C14.9992 6.58592 14.8274 7.15936 14.505 7.64907C14.1827 8.13879 13.7239 8.52332 13.1854 8.75515C12.6469 8.98697 12.0523 9.05593 11.475 8.95349C10.8977 8.85105 10.3631 8.58171 9.93726 8.17876ZM11.5993 15C11.8543 14.559 12.0005 14.0468 12.0005 13.5V12.75C12.0019 11.6428 11.5937 10.5743 10.8545 9.75001H13.4998C14.2954 9.75001 15.0585 10.0661 15.6211 10.6287C16.1837 11.1913 16.4998 11.9544 16.4998 12.75V13.5C16.4998 13.8978 16.3417 14.2794 16.0604 14.5607C15.7791 14.842 15.3976 15 14.9998 15H11.5993Z" fill="#19C8CF"/>
</svg>
