<svg width="18" height="18" viewBox="0 0 18 18" fill="none" xmlns="http://www.w3.org/2000/svg">
<path d="M2.09015 1.71004C2.16106 1.6891 2.2354 1.68235 2.30893 1.69017C2.38245 1.69799 2.45371 1.72023 2.51864 1.75561C2.58356 1.791 2.64087 1.83884 2.68728 1.8964C2.7337 1.95395 2.76831 2.02009 2.78915 2.09104L3.20165 3.48754H14.1929C15.5729 3.48754 16.6266 4.77529 16.2291 6.12004L14.9879 10.32C14.7239 11.2155 13.8846 11.8125 12.9516 11.8125H6.08465C5.15165 11.8125 4.31315 11.2155 4.0484 10.32L1.71065 2.40979C1.6683 2.26677 1.68449 2.11279 1.75566 1.98171C1.82683 1.85062 1.94714 1.75242 2.09015 1.71004ZM4.6874 14.625C4.6874 14.1775 4.86519 13.7483 5.18165 13.4318C5.49812 13.1153 5.92734 12.9375 6.3749 12.9375C6.82245 12.9375 7.25167 13.1153 7.56814 13.4318C7.88461 13.7483 8.0624 14.1775 8.0624 14.625C8.0624 15.0726 7.88461 15.5018 7.56814 15.8183C7.25167 16.1347 6.82245 16.3125 6.3749 16.3125C5.92734 16.3125 5.49812 16.1347 5.18165 15.8183C4.86519 15.5018 4.6874 15.0726 4.6874 14.625ZM10.6874 14.625C10.6874 14.4034 10.731 14.184 10.8158 13.9793C10.9007 13.7745 11.025 13.5885 11.1817 13.4318C11.3384 13.2751 11.5244 13.1508 11.7291 13.066C11.9339 12.9812 12.1533 12.9375 12.3749 12.9375C12.5965 12.9375 12.8159 12.9812 13.0207 13.066C13.2254 13.1508 13.4114 13.2751 13.5681 13.4318C13.7248 13.5885 13.8491 13.7745 13.9339 13.9793C14.0187 14.184 14.0624 14.4034 14.0624 14.625C14.0624 15.0726 13.8846 15.5018 13.5681 15.8183C13.2517 16.1347 12.8224 16.3125 12.3749 16.3125C11.9273 16.3125 11.4981 16.1347 11.1817 15.8183C10.8652 15.5018 10.6874 15.0726 10.6874 14.625Z" fill="#FBAD26"/>
</svg>
