<svg width="18" height="18" viewBox="0 0 18 18" fill="none" xmlns="http://www.w3.org/2000/svg">
<path fill-rule="evenodd" clip-rule="evenodd" d="M6.7497 2.41722C6.74967 2.24736 6.8073 2.08251 6.91317 1.94967C7.01903 1.81682 7.16686 1.72385 7.33245 1.68597C8.42974 1.43636 9.56913 1.43688 10.6662 1.68747C10.8319 1.72521 10.9799 1.81811 11.0859 1.95097C11.1919 2.08383 11.2497 2.24875 11.2497 2.41872V3.80397C11.2497 3.93562 11.2844 4.06495 11.3502 4.17897C11.416 4.29298 11.5107 4.38765 11.6247 4.45348C11.7387 4.5193 11.8681 4.55396 11.9997 4.55395C12.1314 4.55395 12.2607 4.5193 12.3747 4.45347L13.5754 3.75972C13.7228 3.67469 13.8946 3.64226 14.0628 3.66774C14.2309 3.69322 14.3854 3.77511 14.5009 3.89997C15.2635 4.72641 15.8325 5.71226 16.1667 6.78597C16.217 6.94841 16.2107 7.12313 16.1487 7.28148C16.0867 7.43984 15.9727 7.57242 15.8254 7.65747L14.6247 8.35047C14.5107 8.4163 14.416 8.51098 14.3502 8.62499C14.2844 8.739 14.2497 8.86833 14.2497 8.99997C14.2497 9.13162 14.2844 9.26095 14.3502 9.37496C14.416 9.48897 14.5107 9.58364 14.6247 9.64947L15.8247 10.3417C15.9718 10.4267 16.0857 10.5592 16.1477 10.7174C16.2097 10.8756 16.2161 11.0501 16.1659 11.2125C15.8347 12.2879 15.2656 13.2751 14.5009 14.1007C14.3854 14.2255 14.2308 14.3072 14.0626 14.3326C13.8945 14.3579 13.7227 14.3253 13.5754 14.2402L12.3747 13.5465C12.2607 13.4806 12.1314 13.446 11.9997 13.446C11.8681 13.446 11.7387 13.4806 11.6247 13.5465C11.5107 13.6123 11.416 13.707 11.3502 13.821C11.2844 13.935 11.2497 14.0643 11.2497 14.196V15.5835C11.2495 15.7533 11.1917 15.9181 11.0857 16.0508C10.9797 16.1835 10.8318 16.2763 10.6662 16.314C9.56891 16.5636 8.42951 16.5631 7.33245 16.3125C7.16686 16.2746 7.01903 16.1816 6.91317 16.0488C6.8073 15.9159 6.74967 15.7511 6.7497 15.5812V14.196C6.74969 14.0643 6.71504 13.935 6.64921 13.821C6.58338 13.707 6.4887 13.6123 6.37469 13.5465C6.26068 13.4806 6.13134 13.446 5.99969 13.446C5.86804 13.446 5.73871 13.4806 5.6247 13.5465L4.42395 14.2402C4.27664 14.3253 4.1048 14.3577 3.93663 14.3322C3.76846 14.3067 3.61395 14.2248 3.49845 14.1C3.11779 13.6885 2.78446 13.2357 2.5047 12.75C2.224 12.2647 1.99859 11.7495 1.8327 11.214C1.78235 11.0515 1.7887 10.8768 1.8507 10.7185C1.91271 10.5601 2.02669 10.4275 2.17395 10.3425L3.37395 9.64947C3.48795 9.58364 3.58262 9.48897 3.64844 9.37496C3.71426 9.26095 3.74892 9.13162 3.74892 8.99997C3.74892 8.86833 3.71426 8.739 3.64844 8.62499C3.58262 8.51098 3.48795 8.4163 3.37395 8.35047L2.17545 7.65822C2.02821 7.57331 1.91418 7.44091 1.85205 7.28271C1.78991 7.1245 1.78335 6.94989 1.83345 6.78747C2.16484 5.71227 2.73389 4.7254 3.49845 3.89997C3.6139 3.77529 3.76828 3.69352 3.93628 3.66804C4.10429 3.64256 4.27597 3.67488 4.4232 3.75972L5.6247 4.45347C5.73871 4.5193 5.86804 4.55395 5.99969 4.55395C6.13134 4.55396 6.26068 4.5193 6.37469 4.45348C6.4887 4.38765 6.58338 4.29298 6.64921 4.17897C6.71504 4.06495 6.74969 3.93562 6.7497 3.80397V2.41722ZM8.9997 11.25C9.59644 11.25 10.1687 11.0129 10.5907 10.591C11.0126 10.169 11.2497 9.59671 11.2497 8.99997C11.2497 8.40324 11.0126 7.83094 10.5907 7.40898C10.1687 6.98703 9.59644 6.74997 8.9997 6.74997C8.40296 6.74997 7.83066 6.98703 7.40871 7.40898C6.98675 7.83094 6.7497 8.40324 6.7497 8.99997C6.7497 9.59671 6.98675 10.169 7.40871 10.591C7.83066 11.0129 8.40296 11.25 8.9997 11.25Z" fill="#665773"/>
</svg>
