<svg width="40" height="40" viewBox="0 0 40 40" fill="none" xmlns="http://www.w3.org/2000/svg">
<rect width="40" height="40" rx="8" fill="#FBAD26"/>
<path d="M15.8334 25C14.9167 25 14.175 25.75 14.175 26.6667C14.175 27.5833 14.9167 28.3333 15.8334 28.3333C16.75 28.3333 17.5 27.5833 17.5 26.6667C17.5 25.75 16.75 25 15.8334 25ZM10.8334 12.5C10.8334 12.9583 11.2084 13.3333 11.6667 13.3333H12.5L15.5 19.6583L14.375 21.6917C13.7667 22.8083 14.5667 24.1667 15.8334 24.1667H25C25.4584 24.1667 25.8334 23.7917 25.8334 23.3333C25.8334 22.875 25.4584 22.5 25 22.5H15.8334L16.75 20.8333H22.9584C23.5834 20.8333 24.1334 20.4917 24.4167 19.975L27.4 14.5667C27.4703 14.4403 27.5063 14.2979 27.5046 14.1534C27.5028 14.0089 27.4634 13.8673 27.3902 13.7427C27.3169 13.6181 27.2124 13.5148 27.087 13.443C26.9616 13.3712 26.8196 13.3334 26.675 13.3333H14.3417L13.7834 12.1417C13.7166 11.9992 13.6106 11.8788 13.4777 11.7947C13.3448 11.7105 13.1907 11.6661 13.0334 11.6667H11.6667C11.2084 11.6667 10.8334 12.0417 10.8334 12.5ZM24.1667 25C23.25 25 22.5084 25.75 22.5084 26.6667C22.5084 27.5833 23.25 28.3333 24.1667 28.3333C25.0834 28.3333 25.8334 27.5833 25.8334 26.6667C25.8334 25.75 25.0834 25 24.1667 25Z" fill="white"/>
</svg>
