<svg width="41" height="40" viewBox="0 0 41 40" fill="none" xmlns="http://www.w3.org/2000/svg">
<rect x="0.5" width="40" height="40" rx="8" fill="#31B269"/>
<path d="M28.3416 19.5083L20.9833 12.15C20.675 11.8417 20.25 11.6667 19.8083 11.6667H13.8333C12.9166 11.6667 12.1666 12.4167 12.1666 13.3333V19.3083C12.1666 19.75 12.3416 20.175 12.6583 20.4833L20.0166 27.8417C20.6666 28.4917 21.725 28.4917 22.375 27.8417L28.35 21.8667C29 21.2167 29 20.1667 28.3416 19.5083ZM15.9166 16.6667C15.225 16.6667 14.6666 16.1083 14.6666 15.4167C14.6666 14.725 15.225 14.1667 15.9166 14.1667C16.6083 14.1667 17.1666 14.725 17.1666 15.4167C17.1666 16.1083 16.6083 16.6667 15.9166 16.6667Z" fill="white"/>
</svg>
