<svg width="40" height="40" viewBox="0 0 40 40" fill="none" xmlns="http://www.w3.org/2000/svg">
<rect width="40" height="40" rx="8" fill="#783EFD"/>
<path d="M25.8333 21.6667V15C25.8333 14.0833 25.0833 13.3333 24.1667 13.3333H12.5C11.5833 13.3333 10.8333 14.0833 10.8333 15V21.6667C10.8333 22.5833 11.5833 23.3333 12.5 23.3333H24.1667C25.0833 23.3333 25.8333 22.5833 25.8333 21.6667ZM18.3333 20.8333C16.95 20.8333 15.8333 19.7167 15.8333 18.3333C15.8333 16.95 16.95 15.8333 18.3333 15.8333C19.7167 15.8333 20.8333 16.95 20.8333 18.3333C20.8333 19.7167 19.7167 20.8333 18.3333 20.8333ZM29.1667 15.8333V25C29.1667 25.9167 28.4167 26.6667 27.5 26.6667H13.3333V25H27.5V15.8333H29.1667Z" fill="white"/>
</svg>
