<svg width="41" height="40" viewBox="0 0 41 40" fill="none" xmlns="http://www.w3.org/2000/svg">
<rect x="0.5" width="40" height="40" rx="8" fill="#31ADB2"/>
<path fill-rule="evenodd" clip-rule="evenodd" d="M24.3917 20.9417C25.5333 21.7167 26.3333 22.7667 26.3333 24.1667V26.6667H29.6667V24.1667C29.6667 22.35 26.6917 21.275 24.3917 20.9417Z" fill="white"/>
<path d="M18 20C19.841 20 21.3334 18.5076 21.3334 16.6667C21.3334 14.8257 19.841 13.3333 18 13.3333C16.1591 13.3333 14.6667 14.8257 14.6667 16.6667C14.6667 18.5076 16.1591 20 18 20Z" fill="white"/>
<path fill-rule="evenodd" clip-rule="evenodd" d="M23 20C24.8416 20 26.3333 18.5083 26.3333 16.6667C26.3333 14.825 24.8416 13.3333 23 13.3333C22.6083 13.3333 22.2416 13.4167 21.8916 13.5333C22.6087 14.4202 23 15.5262 23 16.6667C23 17.8072 22.6087 18.9132 21.8916 19.8C22.2416 19.9167 22.6083 20 23 20ZM18 20.8333C15.775 20.8333 11.3333 21.95 11.3333 24.1667V26.6667H24.6666V24.1667C24.6666 21.95 20.225 20.8333 18 20.8333Z" fill="white"/>
</svg>
