<svg width="24" height="23" viewBox="0 0 24 23" fill="none" xmlns="http://www.w3.org/2000/svg">
<g clip-path="url(#clip0_493_2547)">
<path d="M14.5736 12.224C17.7765 12.224 20.3819 9.61858 20.3819 6.41569C20.3819 3.21296 17.7765 0.521484 14.5736 0.521484C11.3708 0.521484 8.76538 3.21296 8.76538 6.41569C8.76538 9.61858 11.3708 12.224 14.5736 12.224ZM14.5736 7.06114C13.5061 7.06114 12.6376 6.19269 12.6376 5.12511C12.6376 4.28474 13.1788 3.57521 13.9284 3.30781V2.54362C13.9284 2.18692 14.2169 1.89817 14.5736 1.89817C14.9303 1.89817 15.2189 2.18692 15.2189 2.54362V3.30781C15.9685 3.57521 16.5097 4.28474 16.5097 5.12511C16.5097 5.48181 16.2211 5.7704 15.8644 5.7704C15.5077 5.7704 15.2189 5.48181 15.2189 5.12511C15.2189 4.76892 14.9297 4.47965 14.5736 4.47965C14.2176 4.47965 13.9284 4.76892 13.9284 5.12511C13.9284 5.48114 14.2176 5.7704 14.5736 5.7704C15.6412 5.7704 16.5097 6.63886 16.5097 7.70643C16.5097 8.5468 15.9685 9.25633 15.2189 9.52373V10.2879C15.2189 10.6446 14.9303 10.9334 14.5736 10.9334C14.2169 10.9334 13.9284 10.6446 13.9284 10.2879V9.52373C13.1788 9.25633 12.6376 8.5468 12.6376 7.70643C12.6376 7.34973 12.9262 7.06114 13.2829 7.06114C13.6396 7.06114 13.9284 7.34973 13.9284 7.70643C13.9284 8.06263 14.2176 8.35189 14.5736 8.35189C14.9297 8.35189 15.2189 8.06263 15.2189 7.70643C15.2189 7.3504 14.9297 7.06114 14.5736 7.06114Z" fill="#FF6229"/>
<path d="M1.62332 21.2594H4.24786C4.60422 21.2594 4.89314 20.9703 4.89314 20.6139V12.8696C4.89314 11.8004 4.02637 10.9336 2.95711 10.9336H1.62332C1.26695 10.9336 0.978027 11.2225 0.978027 11.5789V20.6139C0.978027 20.9703 1.26695 21.2594 1.62332 21.2594Z" fill="#FF6229"/>
<path d="M21.3026 16.5607C21.3026 16.5607 14.393 18.6775 13.9283 18.6775C13.541 18.6775 13.1409 18.5871 12.7665 18.4064L10.3916 17.206C10.1077 17.077 9.78497 17.1544 9.5914 17.3866C9.37193 17.6707 8.9589 17.7094 8.68797 17.4901C8.40392 17.2706 8.35229 16.8703 8.58454 16.5864C9.15247 15.8766 10.1464 15.6571 10.9595 16.0572C10.8068 15.9814 13.2179 17.1804 13.3474 17.2447C14.0079 17.575 14.7636 17.3034 15.0769 16.6768C15.4054 16.0199 15.1286 15.2311 14.509 14.9472C14.8551 15.1206 9.28516 12.3291 9.15247 12.2625C8.57949 11.9761 7.95792 11.9102 7.29379 12.0948L6.18384 12.4503V20.2673L9.51404 21.93C11.0629 22.7174 12.9601 22.7304 14.4058 22.0722C14.5347 22.0205 22.232 18.9486 22.2447 18.9486C22.9548 18.6387 23.187 17.7482 22.903 17.2706C22.6448 16.6769 21.9609 16.3412 21.3026 16.5607Z" fill="#FF6229"/>
</g>
<defs>
<clipPath id="clip0_493_2547">
<rect width="22.043" height="22" fill="white" transform="translate(0.978027 0.5)"/>
</clipPath>
</defs>
</svg>
