<svg width="34" height="30" viewBox="0 0 34 30" fill="none" xmlns="http://www.w3.org/2000/svg">
<path fill-rule="evenodd" clip-rule="evenodd" d="M4.50001 20.4019H1.90732C1.7299 20.4019 1.579 20.5308 1.55134 20.7059L0.50272 27.3543C0.481878 27.4856 0.583475 27.6038 0.716546 27.6038H1.95432C2.13174 27.6038 2.28264 27.4749 2.3103 27.2994L2.59313 25.5063C2.62041 25.3306 2.77167 25.2019 2.94873 25.2019H3.76948C5.47738 25.2019 6.463 24.3754 6.72054 22.7377C6.83651 22.0212 6.72545 21.4582 6.38984 21.0638C6.02142 20.631 5.36773 20.4019 4.50001 20.4019ZM4.79913 22.8301C4.65738 23.7605 3.94654 23.7605 3.25922 23.7605H2.86797L3.14245 22.0229C3.15874 21.918 3.24973 21.8406 3.35588 21.8406H3.5352C4.00339 21.8406 4.4451 21.8406 4.67334 22.1075C4.80931 22.2668 4.85106 22.5033 4.79913 22.8301ZM12.2502 22.8003H11.0086C10.9028 22.8003 10.8114 22.8777 10.7951 22.9827L10.7402 23.3299L10.6534 23.2041C10.3846 22.814 9.78529 22.6836 9.18704 22.6836C7.81493 22.6836 6.64317 23.7227 6.41493 25.1805C6.29633 25.9075 6.46493 26.6027 6.87739 27.0877C7.25581 27.5335 7.79721 27.7192 8.44125 27.7192C9.54669 27.7192 10.1598 27.0084 10.1598 27.0084L10.1044 27.3535C10.0835 27.4854 10.1851 27.6036 10.3174 27.6036H11.4358C11.6137 27.6036 11.7637 27.4747 11.7918 27.2992L12.4628 23.0498C12.4841 22.9191 12.3828 22.8003 12.2502 22.8003ZM10.5195 25.2168C10.3997 25.9261 9.83669 26.4022 9.11879 26.4022C8.75827 26.4022 8.47002 26.2866 8.28511 26.0675C8.1016 25.8499 8.03177 25.5401 8.09019 25.1952C8.20212 24.4919 8.77458 24.0003 9.4816 24.0003C9.83406 24.0003 10.1207 24.1173 10.3095 24.3384C10.4986 24.5617 10.5737 24.8733 10.5195 25.2168ZM17.615 22.8001H18.8627C19.0374 22.8001 19.1393 22.9961 19.04 23.1394L14.8904 29.1292C14.8232 29.2263 14.7125 29.284 14.5942 29.284H13.3481C13.1727 29.284 13.0702 29.0864 13.1718 28.9428L14.4639 27.1189L13.0897 23.0859C13.0421 22.9457 13.1456 22.8001 13.2948 22.8001H14.5207C14.68 22.8001 14.8206 22.9047 14.8665 23.0571L15.5958 25.4929L17.3167 22.9582C17.3841 22.8592 17.496 22.8001 17.615 22.8001Z" fill="#253B80"/>
<path fill-rule="evenodd" clip-rule="evenodd" d="M31.1422 27.3542L32.2063 20.5842C32.2226 20.4791 32.3136 20.4017 32.4194 20.4014H33.6173C33.7496 20.4014 33.8512 20.52 33.8303 20.6512L32.781 27.2993C32.7536 27.4747 32.6028 27.6037 32.425 27.6037H31.3552C31.2229 27.6037 31.1214 27.4854 31.1422 27.3542ZM22.9933 20.4017H20.4001C20.2231 20.4017 20.0722 20.5307 20.0445 20.7058L18.9959 27.3542C18.975 27.4854 19.0766 27.6037 19.2091 27.6037H20.5396C20.6633 27.6037 20.7691 27.5135 20.7884 27.3907L21.0859 25.5061C21.1133 25.3305 21.2645 25.2017 21.4415 25.2017H22.2619C23.9701 25.2017 24.9556 24.3752 25.2133 22.7375C25.3296 22.021 25.2178 21.458 24.8824 21.0636C24.5142 20.6308 23.861 20.4017 22.9933 20.4017ZM23.2924 22.83C23.151 23.7603 22.4401 23.7603 21.7524 23.7603H21.3615L21.6364 22.0228C21.6527 21.9179 21.7429 21.8405 21.8494 21.8405H22.0287C22.4966 21.8405 22.9387 21.8405 23.1668 22.1073C23.3029 22.2666 23.3443 22.5031 23.2924 22.83ZM30.7428 22.8001H29.5021C29.3954 22.8001 29.3049 22.8775 29.2889 22.9826L29.234 23.3298L29.1468 23.204C28.878 22.8138 28.2791 22.6835 27.6808 22.6835C26.3087 22.6835 25.1373 23.7226 24.9091 25.1803C24.7908 25.9073 24.9587 26.6026 25.3712 27.0875C25.7503 27.5333 26.291 27.7191 26.935 27.7191C28.0405 27.7191 28.6535 27.0082 28.6535 27.0082L28.5982 27.3533C28.5773 27.4852 28.6789 27.6035 28.8121 27.6035H29.93C30.107 27.6035 30.2579 27.4745 30.2856 27.2991L30.957 23.0496C30.9775 22.9189 30.8759 22.8001 30.7428 22.8001ZM29.0122 25.2166C28.8931 25.9259 28.3294 26.4021 27.6114 26.4021C27.2515 26.4021 26.9628 26.2865 26.7777 26.0673C26.5942 25.8498 26.5252 25.54 26.5829 25.1951C26.6954 24.4917 27.2671 24.0001 27.9742 24.0001C28.3268 24.0001 28.6133 24.1172 28.8022 24.3382C28.9921 24.5616 29.0671 24.8731 29.0122 25.2166Z" fill="#179BD7"/>
<path d="M14.0953 18.023L14.4141 15.9985L13.7041 15.982H10.3137L12.6699 1.04224C12.6771 0.997135 12.7009 0.955082 12.7357 0.925222C12.7704 0.895363 12.815 0.878906 12.8613 0.878906H18.578C20.4758 0.878906 21.7855 1.27384 22.4694 2.05333C22.7899 2.41902 22.9941 2.80114 23.0929 3.22167C23.1964 3.66293 23.1983 4.19011 23.0971 4.83309L23.0897 4.88002V5.292L23.4104 5.47364C23.6804 5.61685 23.8948 5.78079 24.0594 5.96851C24.3338 6.28116 24.5111 6.67853 24.586 7.14964C24.6634 7.63417 24.6378 8.21071 24.5111 8.86345C24.3648 9.61431 24.1283 10.2683 23.809 10.8034C23.5152 11.2964 23.1409 11.7053 22.6967 12.0223C22.2725 12.3234 21.7685 12.552 21.1987 12.6983C20.6464 12.842 20.0169 12.9146 19.3264 12.9146H18.8815C18.5634 12.9146 18.2543 13.0291 18.0118 13.2346C17.7686 13.4442 17.6076 13.7306 17.5583 14.0439L17.5248 14.2262L16.9616 17.7944L16.936 17.9255C16.9294 17.9671 16.9178 17.9878 16.9008 18.0018C16.8855 18.0144 16.8636 18.023 16.8422 18.023H14.0953Z" fill="#253B80"/>
<path d="M23.7135 4.92822C23.6965 5.03731 23.6771 5.14884 23.6551 5.26342C22.9011 9.13411 20.322 10.4713 17.0277 10.4713H15.3505C14.9477 10.4713 14.6083 10.7638 14.5455 11.1612L13.6867 16.6074L13.4435 18.1511C13.4026 18.4119 13.6039 18.6472 13.867 18.6472H16.842C17.1942 18.6472 17.4934 18.3912 17.5488 18.0439L17.5781 17.8926L18.1383 14.3382L18.1742 14.1433C18.229 13.7947 18.5288 13.5388 18.8811 13.5388H19.326C22.2081 13.5388 24.4644 12.3686 25.1239 8.98235C25.3993 7.56779 25.2567 6.38666 24.5278 5.55596C24.3072 5.30547 24.0335 5.09764 23.7135 4.92822Z" fill="#179BD7"/>
<path d="M22.9249 4.61386C22.8098 4.58033 22.6909 4.54986 22.5689 4.52244C22.4465 4.49563 22.3209 4.47186 22.1917 4.45114C21.7395 4.378 21.244 4.34326 20.7131 4.34326H16.2324C16.1221 4.34326 16.0173 4.36824 15.9235 4.41335C15.7168 4.51268 15.5633 4.70833 15.5261 4.94784L14.5728 10.9852L14.5454 11.1613C14.6082 10.7639 14.9477 10.4714 15.3505 10.4714H17.0277C20.3219 10.4714 22.9012 9.13362 23.6551 5.26354C23.6775 5.14897 23.6965 5.03744 23.7135 4.92835C23.5228 4.82717 23.3161 4.74063 23.0937 4.66688C23.0389 4.6486 22.9823 4.63093 22.9249 4.61386Z" fill="#222D65"/>
<path d="M15.526 4.94761C15.5632 4.70808 15.7169 4.51245 15.9234 4.41371C16.018 4.36861 16.1222 4.34363 16.2323 4.34363H20.7132C21.2441 4.34363 21.7395 4.37836 22.1917 4.4515C22.321 4.47222 22.4466 4.49599 22.569 4.5228C22.691 4.55024 22.8097 4.58071 22.925 4.61422C22.9822 4.63129 23.0388 4.64896 23.0943 4.66664C23.3167 4.74038 23.5234 4.82754 23.7141 4.9281C23.9385 3.49769 23.7124 2.52378 22.939 1.64188C22.0864 0.671021 20.5474 0.255371 18.5783 0.255371H12.8615C12.4592 0.255371 12.1162 0.547898 12.0539 0.945881L9.67286 16.0392C9.62584 16.3378 9.85619 16.6073 10.1572 16.6073H13.6867L14.5729 10.9849L15.526 4.94761Z" fill="#253B80"/>
</svg>
