<svg width="43" height="18" viewBox="0 0 43 18" fill="none" xmlns="http://www.w3.org/2000/svg">
<path d="M29.5042 3.90088C31.57 3.90088 33.5186 5.76129 33.5305 9.17627C33.5305 12.9095 31.6056 14.606 29.4924 14.606C28.4537 14.6059 27.8276 14.1699 27.4026 13.8638L27.3909 17.1968L24.4397 17.8208V4.08936H27.0374L27.1907 4.81885C27.6039 4.44204 28.3476 3.90098 29.5042 3.90088ZM4.32349 3.90088C5.30335 3.90088 6.27135 4.05424 7.25122 4.44287V7.21045C6.35399 6.7276 5.22071 6.45654 4.32349 6.45654C3.6978 6.45655 3.31958 6.633 3.31958 7.09229C3.31975 8.41117 7.81744 7.78712 7.82935 11.2964C7.82935 13.4044 6.14136 14.6177 3.68579 14.6177C2.67057 14.6176 1.56098 14.4168 0.463135 13.9458V11.1431C1.45473 11.6848 2.70596 12.0854 3.68579 12.0854C4.34691 12.0854 4.81958 11.9084 4.81958 11.3667C4.81859 9.9659 0.333579 10.4835 0.333252 7.23389C0.333252 5.14941 1.92696 3.90089 4.32349 3.90088ZM11.2883 4.10107H13.5315V6.60986H11.2883V10.7905C11.2885 12.5331 13.1536 11.9915 13.5315 11.8384V14.229C13.142 14.4409 12.4339 14.6176 11.4661 14.6177C9.7189 14.6177 8.40854 13.3342 8.40845 11.5913L8.42017 2.15771L11.3 1.54541L11.2883 4.10107ZM38.5715 3.90088C41.3693 3.90097 42.8332 6.27966 42.8333 9.29443C42.8333 9.57689 42.8098 10.1887 42.8098 10.3423H37.0364C37.1662 11.7319 38.1823 12.1323 39.3274 12.1323C40.4958 12.1323 41.4164 11.8852 42.219 11.4849V13.8403C41.4163 14.2877 40.354 14.6059 38.9495 14.606C36.0689 14.606 34.0618 12.8157 34.0618 9.271C34.0618 6.27971 35.7618 3.90088 38.5715 3.90088ZM23.342 14.4058H20.3792V4.10107H23.342V14.4058ZM17.2034 4.97217C17.8999 3.70028 19.2816 3.95878 19.6594 4.1001V6.80908C19.2935 6.67955 18.1128 6.51494 17.4163 7.42139V14.4048H14.4641V4.1001H17.0149L17.2034 4.97217ZM28.7961 6.51514C28.1233 6.51515 27.6978 6.75077 27.3909 7.09229L27.4036 11.4614C27.6869 11.7675 28.0998 12.0151 28.7961 12.0151C29.8823 12.0151 30.6145 10.8374 30.6145 9.25928C30.6145 7.71653 29.8704 6.51514 28.7961 6.51514ZM38.5598 6.2915C37.8162 6.2915 37.0014 6.84487 37.0012 8.17529H40.0471C40.0469 6.84511 39.2798 6.2917 38.5598 6.2915ZM23.342 2.56982L20.3792 3.20557V0.803223L23.342 0.179199V2.56982Z" fill="#6461FC"/>
</svg>
