<svg width="512" height="512" viewBox="0 0 512 512" fill="none" xmlns="http://www.w3.org/2000/svg">
<g clip-path="url(#clip0_1424_91)">
<path d="M186 151V80C186 46.863 212.863 20 246 20H187C153.863 20 127 46.863 127 80V166C127 287 257 356 257 356C257 356 279.863 344.212 306.411 321.459C276.375 306.196 186 251.896 186 151Z" fill="#CEE1F2"/>
<path d="M439 50C426.04 50 413.858 53.395 403.296 59.342C394.166 25.21 362.972 0 326 0H186C149.028 0 117.834 25.21 108.704 59.342C98.142 53.395 85.96 50 73 50C32.748 50 0 82.748 0 123C0 247.104 71.095 298.042 77.689 302.496C90.632 311.593 109.161 301.959 108.999 285.999C108.999 278.999 105.402 272.839 99.957 269.265C98.656 268.354 84.206 257.956 69.996 235.903C50.092 205.016 40 167.029 40 123C40 104.804 54.804 90 73 90C91.196 90 106 104.804 106 123V166C103.599 246.659 168.295 326.871 236 367.436V422C237.056 448.536 274.953 448.516 276 422V367.572C344.559 327.269 408.305 247.556 406 166V123C406 104.804 420.804 90 439 90C457.196 90 472 104.804 472 123C472 167.029 461.908 205.016 442.004 235.904C427.794 257.956 413.343 268.355 412.043 269.266C406.597 272.84 403 279 403 286C402.837 301.961 421.374 311.594 434.311 302.496C440.905 298.042 512 247.104 512 123C512 82.748 479.252 50 439 50ZM366 166C368.336 233.369 312.295 299.391 256.122 332.822C200.408 298.9 143.702 232.7 146 166V80C146 57.944 163.944 40 186 40H326C348.056 40 366 57.944 366 80V166Z" fill="#303030"/>
<path d="M356 512H156C129.464 510.944 129.484 473.047 156 472H356C382.536 473.056 382.516 510.953 356 512ZM326 111C326 99.954 317.046 91 306 91H206C179.464 92.056 179.484 129.953 206 131H306C317.046 131 326 122.046 326 111Z" fill="#FF6229"/>
</g>
<defs>
<clipPath id="clip0_1424_91">
<rect width="512" height="512" fill="white"/>
</clipPath>
</defs>
</svg>
