<svg width="512" height="512" viewBox="0 0 512 512" fill="none" xmlns="http://www.w3.org/2000/svg">
<g clip-path="url(#clip0_1424_96)">
<path d="M80.0195 392V100C80.0195 55.817 115.837 20 160.02 20H100.02C55.8365 20 20.0195 55.817 20.0195 100V392C20.0195 447.228 64.7905 492 120.02 492H180.02C124.791 492 80.0195 447.228 80.0195 392Z" fill="#CEE1F2"/>
<path d="M447.062 0.103C446.391 0.035 100.02 0 100.02 0C44.8795 0 0.0195312 44.86 0.0195312 100V392C0.0195312 458.168 53.8515 512 120.02 512H292.02C358.188 512 412.02 458.168 412.02 392V70C412.43 33.136 470.85 28.098 471.983 68.052V93.745C471.983 106.012 465.712 116.972 455.618 122.348C445.869 127.54 442.175 139.653 447.368 149.402C452.56 159.152 464.674 162.846 474.422 157.653C497.591 145.314 511.984 120.826 511.984 93.746V68.052C511.982 30.951 483.71 1.67 447.062 0.103ZM372.02 70V392C372.02 436.112 336.132 472 292.02 472H120.02C75.9075 472 40.0195 436.112 40.0195 392V100C40.0195 66.916 66.9355 40 100.02 40H378.819C374.365 49.221 372.02 59.406 372.02 70ZM100.02 90H312.02C338.556 91.056 338.536 128.953 312.02 130H100.02C73.4825 128.944 73.5035 91.047 100.02 90ZM332.02 190C332.02 201.046 323.066 210 312.02 210H246.02C219.484 208.944 219.504 171.047 246.02 170H312.02C323.065 170 332.02 178.954 332.02 190ZM166.02 210H100.02C73.4835 208.944 73.5035 171.047 100.02 170H166.02C192.556 171.056 192.535 208.953 166.02 210Z" fill="#303030"/>
<path d="M244.891 432.004C238.925 432.004 232.928 430.582 227.373 427.7L207.018 417.14L186.663 427.7C173.77 434.39 158.486 433.217 146.775 424.639C135.193 416.157 129.521 402.133 131.97 388.04L135.796 366.025L119.538 350.386C109.141 340.385 105.423 325.666 109.836 311.972C114.279 298.185 125.994 288.337 140.41 286.27L163.099 283.017L173.197 262.826C186.693 235.198 227.347 235.207 240.837 262.826L250.935 283.017L273.624 286.27C288.04 288.337 299.755 298.186 304.198 311.972C308.611 325.665 304.894 340.385 294.496 350.386L278.238 366.025L282.064 388.04C284.513 402.132 278.84 416.156 267.259 424.639C260.596 429.521 252.772 432.004 244.891 432.004ZM151.012 325.16L164.497 338.132C173.481 346.774 177.575 359.243 175.447 371.488L172.205 390.138L189.54 381.145C200.483 375.467 213.551 375.468 224.495 381.145L241.83 390.139L238.588 371.489C236.46 359.243 240.553 346.774 249.538 338.132L263.023 325.161L244.136 322.453C231.858 320.693 221.231 313.051 215.71 302.011L207.017 284.63L198.324 302.011C192.803 313.051 182.176 320.693 169.897 322.453L151.012 325.16Z" fill="#FF6229"/>
</g>
<defs>
<clipPath id="clip0_1424_96">
<rect width="512" height="512" fill="white"/>
</clipPath>
</defs>
</svg>
