<svg width="148" height="30" viewBox="0 0 148 30" fill="none" xmlns="http://www.w3.org/2000/svg">
<g clip-path="url(#clip0_835_1934)">
<rect width="30" height="30" rx="9" fill="#FF6229"/>
<rect width="30" height="30" fill="url(#paint0_linear_835_1934)"/>
<g filter="url(#filter0_d_835_1934)">
<path d="M3.75 6.5625C3.75 5.0092 5.0092 3.75 6.5625 3.75H12.1875C13.7408 3.75 15 5.0092 15 6.5625V12.0858C15.0001 12.1196 15.0002 12.1535 15.0002 12.1875C15.0002 13.7386 16.2558 14.9964 17.806 15C17.8082 15 17.8103 15 17.8125 15H23.4375C24.9908 15 26.25 16.2592 26.25 17.8125V23.4375C26.25 24.9908 24.9908 26.25 23.4375 26.25H17.8125C16.2592 26.25 15 24.9908 15 23.4375V17.8125C15 17.8047 15 17.7969 15.0001 17.7891C14.9875 16.2466 13.7332 15 12.1877 15C12.1804 15 12.1732 15 12.1659 15H6.5625C5.0092 15 3.75 13.7408 3.75 12.1875V6.5625Z" fill="url(#paint1_linear_835_1934)"/>
</g>
</g>
<rect x="0.75" y="0.75" width="28.5" height="28.5" rx="8.25" stroke="url(#paint2_linear_835_1934)" stroke-width="1.5"/>
<path d="M134.109 24.6409V15.8287V10.1934H137.01L136.927 14.6133H137.424C137.682 13.5267 138.023 12.6335 138.446 11.9337C138.888 11.2339 139.45 10.709 140.131 10.3591C140.813 10.0092 141.605 9.83426 142.507 9.83426C144.146 9.83426 145.389 10.4144 146.236 11.5746C147.102 12.7348 147.535 14.5304 147.535 16.9613V24.6409H144.027V17.3204C144.027 15.7551 143.787 14.6133 143.308 13.895C142.848 13.1584 142.157 12.7901 141.236 12.7901C140.463 12.7901 139.809 13.0387 139.275 13.5359C138.741 14.0147 138.327 14.6593 138.032 15.4696C137.756 16.2615 137.608 17.1363 137.59 18.0939V24.6409H134.109Z" fill="#303030"/>
<path d="M123.738 25C122.32 25 121.067 24.7145 119.981 24.1436C118.894 23.5543 118.038 22.698 117.412 21.5746C116.804 20.4328 116.5 19.0332 116.5 17.3757C116.5 15.6814 116.813 14.2818 117.439 13.1768C118.084 12.0534 118.949 11.2155 120.036 10.663C121.122 10.1105 122.347 9.83426 123.71 9.83426C125.128 9.83426 126.38 10.1197 127.467 10.6906C128.553 11.2615 129.41 12.1179 130.036 13.2597C130.662 14.3831 130.975 15.7827 130.975 17.4586C130.975 19.1529 130.662 20.5617 130.036 21.6851C129.41 22.8085 128.544 23.6464 127.439 24.1989C126.353 24.733 125.119 25 123.738 25ZM123.876 22.3481C124.649 22.3481 125.303 22.1731 125.837 21.8232C126.371 21.4549 126.776 20.9116 127.052 20.1934C127.347 19.4751 127.494 18.6188 127.494 17.6243C127.494 16.5746 127.338 15.6814 127.025 14.9448C126.73 14.1897 126.297 13.6096 125.727 13.2044C125.174 12.7993 124.474 12.5967 123.627 12.5967C122.89 12.5967 122.246 12.7808 121.693 13.1492C121.141 13.4991 120.717 14.0239 120.423 14.7238C120.146 15.4236 120.008 16.2891 120.008 17.3204C120.008 18.9411 120.349 20.1842 121.03 21.0497C121.73 21.9153 122.679 22.3481 123.876 22.3481Z" fill="#303030"/>
<path d="M101.762 24.6409V5H105.187V16.0221C105.813 15.6354 106.412 15.2118 106.983 14.7514C107.554 14.2726 108.078 13.7753 108.557 13.2597C109.036 12.744 109.46 12.2284 109.828 11.7127C110.196 11.1786 110.5 10.6722 110.74 10.1934H114.745C114.45 10.9116 114.064 11.6206 113.585 12.3204C113.106 13.0203 112.544 13.6648 111.9 14.2541C111.274 14.8435 110.565 15.3591 109.773 15.8011C108.981 16.2247 108.134 16.5193 107.231 16.6851V17.0718C108.373 16.9061 109.331 16.9613 110.104 17.2376C110.878 17.5138 111.532 17.9282 112.066 18.4807C112.6 19.0331 113.042 19.6777 113.392 20.4144C113.76 21.1326 114.101 21.8692 114.414 22.6243L115.132 24.6409H111.292L110.85 23.3149C110.5 22.3941 110.132 21.5838 109.745 20.884C109.377 20.1657 108.907 19.6133 108.336 19.2265C107.784 18.8214 107.066 18.6188 106.182 18.6188H105.187V24.6409H101.762Z" fill="#303030"/>
<path d="M76.1094 24.6409V15.4972V10.1934H78.9547L78.8718 14.6133H79.369C79.6269 13.5451 79.9584 12.6611 80.3635 11.9613C80.7871 11.2431 81.3027 10.709 81.9105 10.3591C82.5182 10.0092 83.218 9.83426 84.0099 9.83426C84.8939 9.83426 85.6213 10.0368 86.1922 10.442C86.7631 10.8471 87.1959 11.4088 87.4906 12.1271C87.8037 12.8269 87.997 13.6464 88.0707 14.5856H88.5127C88.7521 13.5175 89.0928 12.6335 89.5348 11.9337C89.9952 11.2339 90.5477 10.709 91.1922 10.3591C91.8552 10.0092 92.5827 9.83426 93.3746 9.83426C94.148 9.83426 94.8295 9.99079 95.4188 10.3039C96.0081 10.6169 96.4961 11.0773 96.8829 11.6851C97.288 12.2744 97.5827 13.0203 97.7668 13.9227C97.9694 14.825 98.0707 15.8656 98.0707 17.0442V24.6409H94.5624V17.4862C94.5624 16.4549 94.4703 15.5985 94.2862 14.9171C94.1204 14.2357 93.8534 13.7293 93.4851 13.3978C93.1352 13.0479 92.6748 12.8729 92.1038 12.8729C91.4593 12.8729 90.8976 13.0847 90.4188 13.5083C89.9399 13.9319 89.5624 14.5304 89.2862 15.3039C89.0099 16.0589 88.8442 16.9245 88.7889 17.9006V24.6409H85.3635V17.6519C85.3635 16.5838 85.2714 15.6998 85.0873 15C84.9031 14.2818 84.6269 13.7477 84.2585 13.3978C83.8902 13.0479 83.4206 12.8729 82.8497 12.8729C82.1867 12.8729 81.6158 13.0939 81.137 13.5359C80.6766 13.9779 80.3083 14.5856 80.032 15.3591C79.7742 16.1326 79.6269 16.9982 79.59 17.9558V24.6409H76.1094Z" fill="#303030"/>
<path d="M63.5343 25C62.7424 25 62.0334 24.8527 61.4072 24.558C60.781 24.2449 60.2838 23.7845 59.9155 23.1768C59.5656 22.5691 59.3906 21.814 59.3906 20.9116C59.3906 20.1565 59.5287 19.512 59.805 18.9779C60.0996 18.4438 60.5324 18.011 61.1033 17.6796C61.6742 17.3296 62.3833 17.0442 63.2304 16.8232C64.0775 16.5838 65.072 16.3812 66.2138 16.2155C66.84 16.1234 67.3464 16.0313 67.7332 15.9392C68.1383 15.8471 68.433 15.709 68.6171 15.5249C68.8013 15.3223 68.8934 15.0276 68.8934 14.6409C68.8934 14.07 68.6908 13.582 68.2857 13.1768C67.8989 12.7532 67.2636 12.5414 66.3796 12.5414C65.8455 12.5414 65.3299 12.6335 64.8326 12.8177C64.3538 13.0018 63.9394 13.2965 63.5895 13.7017C63.2396 14.0884 63.0002 14.6041 62.8713 15.2486L59.7497 14.2818C59.9523 13.5451 60.247 12.9098 60.6337 12.3757C61.0205 11.8232 61.4993 11.3536 62.0702 10.9669C62.6411 10.5801 63.2949 10.2947 64.0315 10.1105C64.7682 9.92634 65.5785 9.83426 66.4624 9.83426C67.8068 9.83426 68.9118 10.0552 69.7774 10.4972C70.6429 10.9208 71.2875 11.593 71.7111 12.5138C72.1346 13.4162 72.3464 14.5856 72.3464 16.0221V18.7293C72.3464 19.3554 72.3556 20.0092 72.3741 20.6906C72.4109 21.3536 72.4477 22.0258 72.4845 22.7072C72.5398 23.3702 72.6043 24.0147 72.6779 24.6409H69.5564C69.4827 24.1252 69.4183 23.5727 69.363 22.9834C69.3078 22.3941 69.2617 21.7956 69.2249 21.1878H68.7829C68.5251 21.8877 68.1567 22.5322 67.6779 23.1215C67.1991 23.6924 66.6098 24.1529 65.91 24.5028C65.2286 24.8343 64.4367 25 63.5343 25ZM64.9155 22.4309C65.2838 22.4309 65.6521 22.3665 66.0205 22.2376C66.4072 22.1087 66.7847 21.9153 67.1531 21.6575C67.5214 21.3996 67.8621 21.0866 68.1752 20.7182C68.4882 20.3315 68.7553 19.8803 68.9763 19.3646L68.921 16.9061L69.584 17.0166C69.2709 17.2744 68.8842 17.477 68.4238 17.6243C67.9634 17.7716 67.4753 17.8821 66.9597 17.9558C66.4624 18.0295 65.956 18.1215 65.4403 18.232C64.9431 18.3241 64.4919 18.453 64.0868 18.6188C63.6816 18.7661 63.3593 18.9871 63.1199 19.2818C62.8805 19.558 62.7608 19.9448 62.7608 20.442C62.7608 21.0681 62.9634 21.5562 63.3685 21.9061C63.7737 22.256 64.2893 22.4309 64.9155 22.4309Z" fill="#303030"/>
<path d="M47.8453 25C46.3536 25 45.0092 24.6593 43.8122 23.9779C42.6335 23.2965 41.7035 22.2652 41.0221 20.884C40.3407 19.5028 40 17.7716 40 15.6906C40 14.1805 40.1934 12.8361 40.5801 11.6575C40.9669 10.4604 41.5378 9.44751 42.2928 8.61878C43.0479 7.77164 43.9687 7.13628 45.0552 6.71271C46.1418 6.27072 47.4033 6.04972 48.8398 6.04972C49.9263 6.04972 50.9024 6.17864 51.768 6.43646C52.6519 6.67587 53.4162 7.03499 54.0608 7.51381C54.7053 7.99263 55.2118 8.57274 55.5801 9.25414C55.9484 9.93554 56.1602 10.709 56.2155 11.5746L52.9006 12.5691C52.8637 11.7403 52.6427 11.0589 52.2376 10.5249C51.8508 9.99079 51.3444 9.59484 50.7182 9.33702C50.1105 9.07919 49.4475 8.95028 48.7293 8.95028C47.6796 8.95028 46.7772 9.18048 46.0221 9.64088C45.267 10.1013 44.6869 10.8195 44.2818 11.7956C43.8766 12.7716 43.674 14.0239 43.674 15.5525C43.674 16.7127 43.7937 17.7164 44.0331 18.5635C44.2726 19.3923 44.6133 20.0737 45.0552 20.6077C45.4972 21.1234 46.0313 21.5101 46.6575 21.768C47.2836 22.0074 47.9742 22.1271 48.7293 22.1271C49.5948 22.1271 50.3407 21.9797 50.9669 21.6851C51.6114 21.3904 52.1179 20.93 52.4862 20.3039C52.8729 19.6777 53.1031 18.8858 53.1768 17.9282H49.4751V15.3315H56.6298V18.4807V24.6409H54.0884L54.3094 19.8619H53.8398C53.5635 21.0037 53.1768 21.9613 52.6796 22.7348C52.1823 23.4899 51.5378 24.0608 50.7459 24.4475C49.954 24.8158 48.9871 25 47.8453 25Z" fill="#303030"/>
<defs>
<filter id="filter0_d_835_1934" x="1.5" y="0.9375" width="27" height="31.5" filterUnits="userSpaceOnUse" color-interpolation-filters="sRGB">
<feFlood flood-opacity="0" result="BackgroundImageFix"/>
<feColorMatrix in="SourceAlpha" type="matrix" values="0 0 0 0 0 0 0 0 0 0 0 0 0 0 0 0 0 0 127 0" result="hardAlpha"/>
<feMorphology radius="1.125" operator="erode" in="SourceAlpha" result="effect1_dropShadow_835_1934"/>
<feOffset dy="1.6875"/>
<feGaussianBlur stdDeviation="1.6875"/>
<feComposite in2="hardAlpha" operator="out"/>
<feColorMatrix type="matrix" values="0 0 0 0 0.141176 0 0 0 0 0.141176 0 0 0 0 0.141176 0 0 0 0.1 0"/>
<feBlend mode="normal" in2="BackgroundImageFix" result="effect1_dropShadow_835_1934"/>
<feBlend mode="normal" in="SourceGraphic" in2="effect1_dropShadow_835_1934" result="shape"/>
</filter>
<linearGradient id="paint0_linear_835_1934" x1="15" y1="3.72529e-07" x2="16.25" y2="30" gradientUnits="userSpaceOnUse">
<stop stop-color="white" stop-opacity="0"/>
<stop offset="1" stop-color="white" stop-opacity="0.12"/>
</linearGradient>
<linearGradient id="paint1_linear_835_1934" x1="15" y1="3.75" x2="15" y2="26.25" gradientUnits="userSpaceOnUse">
<stop stop-color="white" stop-opacity="0.8"/>
<stop offset="1" stop-color="white" stop-opacity="0.5"/>
</linearGradient>
<linearGradient id="paint2_linear_835_1934" x1="15" y1="0" x2="15" y2="30" gradientUnits="userSpaceOnUse">
<stop stop-color="white" stop-opacity="0.12"/>
<stop offset="1" stop-color="white" stop-opacity="0"/>
</linearGradient>
<clipPath id="clip0_835_1934">
<rect width="30" height="30" rx="9" fill="white"/>
</clipPath>
</defs>
</svg>
