<svg width="22" height="22" viewBox="0 0 22 22" fill="none" xmlns="http://www.w3.org/2000/svg">
<g clip-path="url(#clip0_244_7125)">
<path fill-rule="evenodd" clip-rule="evenodd" d="M12.1001 3.0509C12.1001 2.57618 12.4787 2.2 12.9471 2.2H15.4001V0H12.9471C11.2595 0 9.90007 1.36531 9.90007 3.0509V5.5H6.10503C3.27362 5.5 0.904843 7.64963 0.63084 10.4678L0.017252 16.7785C-0.197496 18.9872 1.53835 20.9 3.75745 20.9C5.47768 20.9 6.97826 19.7319 7.40039 18.0643L7.48117 17.7451C7.66652 17.0129 8.3254 16.5 9.08073 16.5H13.1945C13.9498 16.5 14.6086 17.0129 14.794 17.7451L14.9017 18.1703C15.308 19.7756 16.7524 20.9 18.4082 20.9C20.544 20.9 22.2147 19.0595 22.0087 16.9337L21.3819 10.4693C21.1086 7.65048 18.7396 5.5 15.9075 5.5H12.1001V3.0509ZM6.60002 7.7C7.20754 7.7 7.70002 8.19249 7.70002 8.8V9.9H8.80002C9.40754 9.9 9.90002 10.3925 9.90002 11C9.90002 11.6075 9.40754 12.1 8.80002 12.1H7.70002V13.2C7.70002 13.8075 7.20754 14.3 6.60002 14.3C5.99251 14.3 5.50002 13.8075 5.50002 13.2V12.1H4.40002C3.79251 12.1 3.30002 11.6075 3.30002 11C3.30002 10.3925 3.79251 9.9 4.40002 9.9H5.50002V8.8C5.50002 8.19249 5.99251 7.7 6.60002 7.7ZM14.8501 11C15.7613 11 16.5001 10.2613 16.5001 9.35C16.5001 8.43873 15.7613 7.7 14.8501 7.7C13.9387 7.7 13.2001 8.43873 13.2001 9.35C13.2001 10.2613 13.9387 11 14.8501 11ZM18.1501 15.4C19.0613 15.4 19.8001 14.6612 19.8001 13.75C19.8001 12.8388 19.0613 12.1 18.1501 12.1C17.2387 12.1 16.5001 12.8388 16.5001 13.75C16.5001 14.6612 17.2387 15.4 18.1501 15.4Z" fill="white"/>
</g>
<defs>
<clipPath id="clip0_244_7125">
<rect width="22" height="22" fill="white"/>
</clipPath>
</defs>
</svg>
