<svg width="22" height="22" viewBox="0 0 22 22" fill="none" xmlns="http://www.w3.org/2000/svg">
<path d="M20.1665 10.055V11.9434C20.1665 12.4475 19.7632 12.86 19.2499 12.8784H17.4532C16.4632 12.8784 15.5557 12.1542 15.4732 11.1642C15.4182 10.5867 15.6382 10.0459 16.0232 9.67004C16.3624 9.3217 16.8299 9.12006 17.3432 9.12006H19.2499C19.7632 9.13839 20.1665 9.55087 20.1665 10.055Z" fill="white"/>
<path d="M18.7641 14.2541H17.4533C15.7116 14.2541 14.2449 12.9433 14.0983 11.275C14.0158 10.3216 14.3641 9.36831 15.0608 8.68998C15.6474 8.08498 16.4633 7.74581 17.3433 7.74581H18.7641C19.0299 7.74581 19.2499 7.52581 19.2224 7.25998C19.0208 5.03248 17.5449 3.51081 15.3541 3.25415C15.1341 3.21748 14.9049 3.20831 14.6666 3.20831H6.41658C6.15992 3.20831 5.91242 3.22665 5.67409 3.26331C3.33659 3.55665 1.83325 5.29831 1.83325 7.79165V14.2083C1.83325 16.7383 3.88659 18.7916 6.41658 18.7916H14.6666C17.2333 18.7916 19.0024 17.1875 19.2224 14.74C19.2499 14.4741 19.0299 14.2541 18.7641 14.2541ZM11.9166 8.93748H6.41658C6.04075 8.93748 5.72909 8.62581 5.72909 8.24998C5.72909 7.87415 6.04075 7.56248 6.41658 7.56248H11.9166C12.2924 7.56248 12.6041 7.87415 12.6041 8.24998C12.6041 8.62581 12.2924 8.93748 11.9166 8.93748Z" fill="white"/>
</svg>
