<svg width="22" height="22" viewBox="0 0 22 22" fill="none" xmlns="http://www.w3.org/2000/svg">
<g clip-path="url(#clip0_244_7076)">
<path d="M17.4898 6.04999C16.8298 4.94999 15.6198 4.39999 14.2998 4.39999H7.69979C6.37979 4.39999 5.16979 4.94999 4.50979 6.04999C1.97979 9.89999 1.42979 15.73 3.18979 16.94C4.94979 18.15 8.90979 12.87 10.9998 12.87C13.0898 12.87 16.9398 18.15 18.8098 16.94C20.5698 15.73 20.0198 9.89999 17.4898 6.04999ZM8.79979 9.89999H7.69979V11H6.59979V9.89999H5.49979V8.79999H6.59979V7.69999H7.69979V8.79999H8.79979V9.89999ZM14.7398 10.45C14.7398 11 14.2998 11.44 13.7498 11.44C13.1998 11.44 12.7598 11 12.7598 10.45C12.7598 9.89999 13.1998 9.45999 13.7498 9.45999C14.2998 9.45999 14.7398 9.89999 14.7398 10.45ZM16.8298 8.24999C16.8298 8.79999 16.3898 9.23999 15.8398 9.23999C15.2898 9.23999 14.8498 8.79999 14.8498 8.24999C14.8498 7.69999 15.2898 7.25999 15.8398 7.25999C16.3898 7.25999 16.8298 7.69999 16.8298 8.24999Z" fill="white"/>
</g>
<defs>
<clipPath id="clip0_244_7076">
<rect width="22" height="22" fill="white"/>
</clipPath>
</defs>
</svg>
