<svg width="22" height="22" viewBox="0 0 22 22" fill="none" xmlns="http://www.w3.org/2000/svg">
<path d="M19.1594 9.02917L19.7002 18.095C19.7185 18.3425 19.5994 18.5075 19.5352 18.5808C19.4619 18.6633 19.306 18.7917 19.0494 18.7917H16.5469L18.5269 9.02917H19.1594ZM20.1677 5.5L20.1585 5.51833C20.1769 5.73833 20.1585 5.9675 20.1035 6.19667L13.3477 18.5992C13.1277 19.525 12.3027 20.1667 11.3494 20.1667H19.0494C20.2319 20.1667 21.1669 19.1675 21.0752 17.985L20.1677 5.5Z" fill="white"/>
<path d="M10.4963 2.05458C10.588 1.68792 10.3588 1.31208 9.99218 1.22042C9.62551 1.13792 9.24968 1.35792 9.15804 1.72458L8.69971 3.62208H10.1113L10.4963 2.05458Z" fill="white"/>
<path d="M16.5469 2.02454C16.6294 1.64871 16.391 1.29121 16.0152 1.20871C15.6485 1.12621 15.2819 1.36454 15.1994 1.74037L14.7869 3.63787H16.1985L16.5469 2.02454Z" fill="white"/>
<path d="M20.0018 4.88714C19.6993 4.15381 18.9843 3.63131 18.1043 3.63131H16.1976L15.6843 6.00548C15.611 6.32631 15.3268 6.54631 15.0151 6.54631C14.9693 6.54631 14.9143 6.54631 14.8685 6.52798C14.5018 6.44548 14.2635 6.07881 14.3368 5.71214L14.786 3.62214H10.111L9.53348 6.00548C9.46014 6.31714 9.17598 6.52798 8.86427 6.52798C8.80927 6.52798 8.75427 6.51881 8.69927 6.50964C8.33261 6.41798 8.10343 6.05131 8.1951 5.67548L8.6901 3.61298H6.82927C5.93093 3.61298 5.13343 4.19964 4.8676 5.06131L1.00843 17.4821C0.605103 18.8113 1.58593 20.168 2.9701 20.168H15.0151C15.9685 20.168 16.7935 19.5263 17.0135 18.6005L20.1026 6.19798C20.1576 5.96881 20.176 5.73964 20.1576 5.51964C20.1393 5.29964 20.0935 5.07964 20.0018 4.88714ZM13.4751 15.3555H6.14177C5.76593 15.3555 5.45427 15.0438 5.45427 14.668C5.45427 14.2921 5.76593 13.9805 6.14177 13.9805H13.4751C13.851 13.9805 14.1626 14.2921 14.1626 14.668C14.1626 15.0438 13.851 15.3555 13.4751 15.3555ZM14.3918 11.6888H7.05843C6.6826 11.6888 6.37093 11.3771 6.37093 11.0013C6.37093 10.6255 6.6826 10.3138 7.05843 10.3138H14.3918C14.7676 10.3138 15.0793 10.6255 15.0793 11.0013C15.0793 11.3771 14.7676 11.6888 14.3918 11.6888Z" fill="white"/>
</svg>
