<svg width="22" height="22" viewBox="0 0 22 22" fill="none" xmlns="http://www.w3.org/2000/svg">
<path d="M15.8596 3.44153C15.7372 3.44153 14.8678 3.61299 7.73983 4.94812C7.68414 4.94812 7.41764 5.01776 7.2712 5.14014C7.12751 5.25564 7.05098 5.40981 7.02279 5.59131C6.90385 6.06637 7.28282 14.6308 6.93014 15.0323C6.77614 15.2035 6.50469 15.253 6.295 15.2915C5.041 15.5115 4.20614 15.6267 3.61214 16.1925C2.58846 17.1914 3.11887 18.9345 4.62862 19.2178C5.19444 19.3223 6.25707 19.1804 6.8442 18.8552C7.3612 18.5892 7.75318 18.1108 7.89962 17.4749C8.02543 16.9297 7.9869 17.3065 7.9869 9.10535C7.9869 8.70316 8.0994 8.59824 8.45553 8.52124C8.45553 8.52124 14.6571 7.36156 14.9438 7.31274C15.3453 7.24262 15.5373 7.35124 15.5373 7.74243C15.5373 13.3022 15.6077 13.1936 15.3842 13.4452C15.2302 13.6164 15.0474 13.6645 14.8377 13.703C13.583 13.923 12.8254 13.9617 12.2314 14.5275C11.48 15.261 11.4901 16.4244 12.3254 17.1271C12.9476 17.6014 13.6461 17.7182 14.502 17.5608C15.4769 17.3786 16.2041 16.84 16.4276 15.8823C16.5286 15.4458 16.4962 16.0919 16.492 4.05652C16.492 3.65089 16.2611 3.41334 15.8596 3.44153Z" fill="white"/>
</svg>
