<svg width="22" height="22" viewBox="0 0 22 22" fill="none" xmlns="http://www.w3.org/2000/svg">
<g clip-path="url(#clip0_244_7155)">
<path d="M21.8349 5.30753L20.9962 3.50628C20.783 3.05803 20.387 2.72528 19.9072 2.60153C17.2424 1.87553 14.1858 1.4314 11.0343 1.3764C7.81404 1.43278 4.75741 1.87553 1.83966 2.66065C1.61279 2.72665 1.21679 3.0594 1.00779 3.49803L0.16491 5.3089C0.0617852 5.5179 0.00128516 5.76403 -8.98436e-05 6.0239V7.22015C-0.00146484 7.23665 -0.00146484 7.2559 -0.00146484 7.27653C-0.00146484 7.81553 0.435785 8.25278 0.974785 8.25278C0.98991 8.25278 1.00504 8.25278 1.02016 8.2514H4.48241C5.04891 8.23765 5.50266 7.77565 5.50266 7.2064C5.50266 7.18165 5.50129 7.15828 5.49991 7.13353V5.98128C5.49991 5.97578 5.49991 5.97028 5.49991 5.96478C5.49991 5.6499 5.66353 5.37353 5.90966 5.21403C7.21178 4.51553 8.75454 4.10578 10.3922 4.10578C10.6067 4.10578 10.8184 4.11265 11.0302 4.1264C11.1979 4.11128 11.4262 4.10303 11.6572 4.10303C13.2769 4.10303 14.8018 4.50315 16.141 5.2099C16.3377 5.34603 16.5013 5.6224 16.5013 5.93728V5.95515V7.13628C16.4999 7.1569 16.4985 7.18165 16.4985 7.20503C16.4985 7.7729 16.9523 8.23628 17.5174 8.25003H20.9838C20.9962 8.25003 21.0113 8.2514 21.0264 8.2514C21.5654 8.2514 22.0027 7.81415 22.0027 7.27515C22.0027 7.2559 22.0027 7.23528 22.0013 7.21603V6.02253C21.9999 5.76265 21.9394 5.51653 21.8322 5.2979L21.8349 5.30753Z" fill="white"/>
<path d="M16.5 11.4125C15.642 10.3166 15.1236 8.91688 15.1236 7.3975C15.1236 7.359 15.1236 7.3205 15.125 7.282V6.875H13.75V8.25H8.25V6.875H6.875V7.32875C6.875 7.36175 6.87637 7.40025 6.87637 7.43875C6.87637 8.95812 6.358 10.3565 5.489 11.4675L1.375 16.5V20.625H20.625V16.5L16.5 11.4125ZM11 17.875C8.72162 17.875 6.875 16.0284 6.875 13.75C6.875 11.4716 8.72162 9.625 11 9.625C13.2784 9.625 15.125 11.4716 15.125 13.75C15.125 16.0284 13.2784 17.875 11 17.875Z" fill="white"/>
<path d="M13.75 13.75C13.75 15.2694 12.5194 16.5 11 16.5C9.48062 16.5 8.25 15.2694 8.25 13.75C8.25 12.2306 9.48062 11 11 11C12.5194 11 13.75 12.2306 13.75 13.75Z" fill="white"/>
</g>
<defs>
<clipPath id="clip0_244_7155">
<rect width="22" height="22" fill="white"/>
</clipPath>
</defs>
</svg>
