<svg width="22" height="22" viewBox="0 0 22 22" fill="none" xmlns="http://www.w3.org/2000/svg">
<path d="M12.0358 20.3408L10.5417 16.83C11.9808 16.2983 13.3283 15.5833 14.575 14.7492L12.0358 20.3408ZM5.17001 11.4583L1.65918 9.96416L7.25085 7.42499C6.41668 8.67166 5.70168 10.0192 5.17001 11.4583ZM19.8092 2.19082C19.8092 2.19082 15.2717 0.246573 10.0833 5.43582C8.07585 7.44332 6.87501 9.65249 6.09585 11.5867C5.83918 12.2742 6.01335 13.0258 6.51751 13.5392L8.47001 15.4825C8.97418 15.9958 9.72585 16.1608 10.4133 15.9042C12.375 15.1525 14.5567 13.9242 16.5642 11.9167C21.7525 6.72832 19.8092 2.19082 19.8092 2.19082ZM13.3283 8.67166C12.6133 7.95666 12.6133 6.79249 13.3283 6.07749C14.0433 5.36249 15.2075 5.36249 15.9225 6.07749C16.6283 6.79249 16.6375 7.95666 15.9225 8.67166C15.2075 9.38666 14.0433 9.38666 13.3283 8.67166ZM5.72001 20.1667L9.05668 16.83C8.74501 16.7475 8.44251 16.61 8.16751 16.4175L4.42751 20.1667H5.72001ZM1.83335 20.1667H3.12585L7.49835 15.8033L6.19668 14.5108L1.83335 18.8742V20.1667ZM1.83335 17.5725L5.58251 13.8325C5.39001 13.5575 5.25251 13.2642 5.17001 12.9433L1.83335 16.28V17.5725Z" fill="white"/>
</svg>
