<svg width="22" height="22" viewBox="0 0 22 22" fill="none" xmlns="http://www.w3.org/2000/svg">
<g clip-path="url(#clip0_244_7100)">
<path d="M7.1109 10.427C5.87752 10.7863 5.05011 11.8433 5.1333 12.9742C5.52518 12.537 6.12364 12.1595 6.84861 11.9113L7.1109 10.427ZM3.29355 12.1406L2.20283 5.96997C2.19286 5.91428 2.21246 5.87991 2.21108 5.87888C4.19658 4.77681 6.44333 4.19416 8.7083 4.19416C8.76365 4.19416 8.81933 4.2 8.87502 4.20069C9.35455 3.73766 9.96574 3.41591 10.6484 3.30694C11.2978 3.20312 11.9564 3.15053 12.614 3.12406C12.2706 2.64453 11.7725 2.29116 11.1781 2.19594C10.3562 2.06497 9.53021 2 8.70796 2C6.07277 2 3.47265 2.66756 1.14133 3.96144C0.310489 4.42275 -0.134668 5.38525 0.0361762 6.35119L1.12689 12.5218C1.61605 15.2897 5.81324 17.4058 8.15486 17.4058C8.27827 17.4058 8.3869 17.39 8.49896 17.3783C8.03421 16.7912 7.50415 15.9868 7.14115 15.0553C5.50455 14.6091 3.49533 13.2808 3.29355 12.1406ZM6.64683 7.41544C6.62174 7.27381 6.57018 7.14491 6.50693 7.02356C6.22333 7.32984 5.79639 7.56497 5.2928 7.65331C4.78921 7.742 4.30727 7.66706 3.93568 7.47559C3.9178 7.61103 3.91368 7.74991 3.93877 7.89153C4.07077 8.63747 4.78371 9.13556 5.53171 9.00425C6.27936 8.87294 6.77883 8.16138 6.64683 7.41544ZM20.8588 6.15594C17.8001 4.4585 14.2784 3.83872 10.822 4.39078C9.88324 4.54066 9.1349 5.29347 8.9644 6.25941L7.87368 12.4301C7.34465 15.4224 11.1489 19.1768 13.3156 19.5577C15.4822 19.9389 20.3442 17.7087 20.8733 14.7163L21.964 8.54569C22.1348 7.57941 21.6897 6.61691 20.8588 6.15594ZM11.4662 9.48344C11.5982 8.7375 12.3111 8.23941 13.0591 8.37106C13.8071 8.50272 14.3063 9.21394 14.1746 9.95988C14.1495 10.1015 14.098 10.2304 14.0347 10.3518C13.7511 10.0455 13.3242 9.81034 12.8206 9.722C12.317 9.63331 11.8351 9.70825 11.4635 9.89972C11.4452 9.76394 11.4411 9.62506 11.4662 9.48344ZM13.8886 16.3158C11.9746 15.9793 10.6739 14.2784 10.8279 12.4349C11.536 13.3128 12.7601 14.022 14.2478 14.2836C15.7356 14.5452 17.1291 14.2963 18.0954 13.7129C17.608 15.4984 15.8023 16.6523 13.8886 16.3158ZM18.3677 11.1135C18.0841 10.8072 17.6568 10.5721 17.1532 10.4838C16.6496 10.3951 16.1677 10.47 15.7961 10.6615C15.7782 10.526 15.7741 10.3872 15.7992 10.2455C15.9312 9.49959 16.6441 9.0015 17.3921 9.13281C18.1398 9.26447 18.6392 9.97569 18.5076 10.7216C18.4825 10.8636 18.4309 10.9925 18.3677 11.1135Z" fill="white"/>
</g>
<defs>
<clipPath id="clip0_244_7100">
<rect width="22" height="22" fill="white"/>
</clipPath>
</defs>
</svg>
