<svg width="22" height="22" viewBox="0 0 22 22" fill="none" xmlns="http://www.w3.org/2000/svg">
<g clip-path="url(#clip0_244_7176)">
<path d="M11.0001 16.9583C9.61958 15.1571 8.25008 13.2917 8.25008 11.9167C8.25008 10.0833 9.16675 9.16667 11.0001 9.16667C12.8334 9.16667 13.7501 10.0833 13.7501 11.9167C13.7501 13.2917 12.3806 15.1571 11.0001 16.9583ZM11.0001 16.9583C11.9167 17.875 12.3751 18.3333 13.2917 18.7917C14.2084 19.25 15.5834 19.7083 17.4167 18.3333C19.2501 16.9583 18.7917 15.125 17.8751 12.8333C16.9584 10.5417 15.7365 7.79167 13.2917 4.125C12.5272 3.20833 11.9167 2.75 10.9973 2.75C10.0807 2.75 9.50958 3.1625 8.70841 4.125C6.26366 7.79167 5.04175 10.5417 4.12508 12.8333C3.20841 15.125 2.75008 16.9583 4.58341 18.3333C6.41675 19.7083 7.79175 19.25 8.70841 18.7917C9.62508 18.3333 10.0834 17.875 11.0001 16.9583Z" stroke="white" stroke-width="1.83333" stroke-linecap="round" stroke-linejoin="round"/>
</g>
<defs>
<clipPath id="clip0_244_7176">
<rect width="22" height="22" fill="white"/>
</clipPath>
</defs>
</svg>
