<svg width="22" height="22" viewBox="0 0 22 22" fill="none" xmlns="http://www.w3.org/2000/svg">
<g clip-path="url(#clip0_244_7118)">
<path d="M3.76018 19.2803C5.76238 21.0371 8.33628 22.0041 11 22C13.6648 22.0039 16.2398 21.037 18.2435 19.2803C19.9641 17.5276 14.2872 11.297 11 8.81467C7.71651 11.297 2.03593 17.5276 3.76018 19.2803ZM13.9902 6.07475C16.2818 8.789 20.8505 15.5283 19.5598 17.9107C21.1423 15.9569 22.004 13.5179 22 11.0037C22.002 9.54737 21.7137 8.10529 21.1518 6.76176C20.5899 5.41823 19.7657 4.20023 18.7275 3.179C18.7275 3.179 18.7028 3.15883 18.6523 3.1405C18.5695 3.11192 18.4824 3.09796 18.3948 3.09925C17.8521 3.09925 16.5752 3.49708 13.9902 6.07475ZM3.34951 3.1405C3.29726 3.15883 3.27434 3.17808 3.27068 3.179C2.23305 4.20057 1.40939 5.41868 0.847824 6.76215C0.286258 8.10563 -0.00195881 9.54755 1.00191e-05 11.0037C1.00191e-05 13.6198 0.914843 16.0206 2.43926 17.9089C1.15501 15.521 5.72001 8.78717 8.01259 6.07475C5.42759 3.49617 4.14793 3.10017 3.60709 3.10017C3.51929 3.09706 3.43174 3.11139 3.34951 3.14233V3.1405ZM11 3.25508C11 3.25508 8.30043 1.67567 6.19209 1.6005C5.36434 1.57025 4.85926 1.87092 4.79784 1.91125C6.76409 0.592167 8.85409 0 10.9853 0H11C13.1395 0 15.2213 0.592167 17.2022 1.91125C17.1398 1.86908 16.6384 1.57025 15.8088 1.6005C13.7005 1.67567 11 3.24958 11 3.24958V3.25508Z" fill="white"/>
</g>
<defs>
<clipPath id="clip0_244_7118">
<rect width="22" height="22" fill="white"/>
</clipPath>
</defs>
</svg>
