<svg width="22" height="22" viewBox="0 0 22 22" fill="none" xmlns="http://www.w3.org/2000/svg">
<path d="M8.24995 7.69999C9.16122 7.69999 9.89995 8.43871 9.89995 9.34999V18.15C9.89995 19.0612 9.16122 19.8 8.24995 19.8H3.84995C2.93868 19.8 2.19995 19.0612 2.19995 18.15V9.34999C2.19995 8.43871 2.93868 7.69999 3.84995 7.69999H8.24995ZM6.59995 16.5H5.49995C5.1962 16.5 4.94995 16.7463 4.94995 17.05C4.94995 17.3537 5.1962 17.6 5.49995 17.6H6.59995C6.90371 17.6 7.14995 17.3537 7.14995 17.05C7.14995 16.7463 6.90371 16.5 6.59995 16.5ZM19.25 15.4C19.5537 15.4 19.8 15.6463 19.8 15.95C19.8 16.22 19.6054 16.4445 19.3488 16.4911L19.25 16.5H11V15.4H19.25ZM17.05 3.29999C17.9612 3.29999 18.7 4.03871 18.7 4.94999V12.65C18.7 13.5612 17.9612 14.3 17.05 14.3H11V8.79999C11 7.58496 10.015 6.59999 8.79995 6.59999H3.29995V4.94999C3.29995 4.03871 4.03868 3.29999 4.94995 3.29999H17.05Z" fill="white"/>
</svg>
