<svg width="22" height="22" viewBox="0 0 22 22" fill="none" xmlns="http://www.w3.org/2000/svg">
<path d="M4.125 4.125C2.60622 4.125 1.375 5.35622 1.375 6.875V8.25H20.625V6.875C20.625 5.35622 19.3938 4.125 17.875 4.125H4.125Z" fill="white"/>
<path d="M1.375 15.125V9.625H20.625V15.125C20.625 16.6438 19.3938 17.875 17.875 17.875H4.125C2.60622 17.875 1.375 16.6438 1.375 15.125ZM14.4375 13.75C14.0579 13.75 13.75 14.0579 13.75 14.4375C13.75 14.8171 14.0579 15.125 14.4375 15.125H17.1875C17.5671 15.125 17.875 14.8171 17.875 14.4375C17.875 14.0579 17.5671 13.75 17.1875 13.75H14.4375Z" fill="white"/>
</svg>
