<svg width="22" height="22" viewBox="0 0 22 22" fill="none" xmlns="http://www.w3.org/2000/svg">
<g clip-path="url(#clip0_244_7093)">
<path d="M2.75 4.58333V17.4167C2.75 18.425 3.56583 19.25 4.58333 19.25H17.4167C18.425 19.25 19.25 18.425 19.25 17.4167V4.58333C19.25 3.575 18.425 2.75 17.4167 2.75H4.58333C3.56583 2.75 2.75 3.575 2.75 4.58333ZM13.75 8.25C13.75 9.77167 12.5217 11 11 11C9.47833 11 8.25 9.77167 8.25 8.25C8.25 6.72833 9.47833 5.5 11 5.5C12.5217 5.5 13.75 6.72833 13.75 8.25ZM5.5 15.5833C5.5 13.75 9.16667 12.7417 11 12.7417C12.8333 12.7417 16.5 13.75 16.5 15.5833V16.5H5.5V15.5833Z" fill="white"/>
</g>
<defs>
<clipPath id="clip0_244_7093">
<rect width="22" height="22" fill="white"/>
</clipPath>
</defs>
</svg>
