<svg width="22" height="22" viewBox="0 0 22 22" fill="none" xmlns="http://www.w3.org/2000/svg">
<path d="M3.4375 17.875C3.4375 18.6043 3.72723 19.3038 4.24296 19.8195C4.75868 20.3353 5.45815 20.625 6.1875 20.625H10.1406C10.1862 20.625 10.2299 20.6069 10.2622 20.5747C10.2944 20.5424 10.3125 20.4987 10.3125 20.4531V12.5469C10.3125 12.5013 10.2944 12.4576 10.2622 12.4253C10.2299 12.3931 10.1862 12.375 10.1406 12.375H3.78125C3.69008 12.375 3.60265 12.4112 3.53818 12.4757C3.47372 12.5401 3.4375 12.6276 3.4375 12.7188V17.875Z" fill="white"/>
<path d="M10.3125 10.8281V6.18747H11.6875V10.8281C11.6875 10.8737 11.7056 10.9174 11.7378 10.9496C11.7701 10.9819 11.8138 11 11.8594 11H17.875C18.1092 11 18.3417 10.96 18.5625 10.8818C18.9643 10.7392 19.3121 10.4757 19.5583 10.1276C19.8044 9.77954 19.9369 9.36382 19.9375 8.93747V8.24997C19.9375 7.70297 19.7202 7.17836 19.3334 6.79157C18.9466 6.40477 18.422 6.18747 17.875 6.18747H16.133C16.1181 6.18724 16.1034 6.18309 16.0906 6.17545C16.0777 6.16781 16.067 6.15694 16.0597 6.14392C16.0523 6.13089 16.0484 6.11617 16.0485 6.1012C16.0485 6.08623 16.0525 6.07153 16.06 6.05857C16.4578 5.38692 16.587 4.5897 16.4217 3.82678C16.2564 3.06386 15.8088 2.39164 15.1686 1.9449C14.5285 1.49816 13.7431 1.30993 12.97 1.41796C12.1969 1.52599 11.4932 1.92229 11 2.5274C10.5068 1.92229 9.80312 1.52599 9.03001 1.41796C8.2569 1.30993 7.47152 1.49816 6.83136 1.9449C6.19121 2.39164 5.7436 3.06386 5.57829 3.82678C5.41297 4.5897 5.54218 5.38692 5.94 6.05857C5.94749 6.07153 5.95146 6.08623 5.95152 6.1012C5.95158 6.11617 5.94773 6.13089 5.94035 6.14392C5.93297 6.15694 5.92231 6.16781 5.90944 6.17545C5.89657 6.18309 5.88192 6.18724 5.86695 6.18747H4.125C3.57799 6.18747 3.05339 6.40477 2.66659 6.79157C2.2798 7.17836 2.0625 7.70297 2.0625 8.24997V8.93747C2.06311 9.36382 2.19558 9.77954 2.44174 10.1276C2.68791 10.4757 3.03573 10.7392 3.4375 10.8818C3.65828 10.96 3.89078 11 4.125 11H10.1406C10.1862 11 10.2299 10.9819 10.2622 10.9496C10.2944 10.9174 10.3125 10.8737 10.3125 10.8281ZM11.6875 4.46872C11.6875 4.12879 11.7883 3.79649 11.9772 3.51384C12.166 3.23119 12.4345 3.01089 12.7485 2.88081C13.0626 2.75072 13.4082 2.71668 13.7416 2.783C14.075 2.84932 14.3812 3.01301 14.6216 3.25338C14.862 3.49376 15.0257 3.80001 15.092 4.13341C15.1583 4.46682 15.1243 4.8124 14.9942 5.12646C14.8641 5.44052 14.6438 5.70895 14.3611 5.89781C14.0785 6.08667 13.7462 6.18747 13.4062 6.18747H11.6875V4.46872ZM8.47086 2.75427C8.70633 2.73739 8.94275 2.7692 9.16538 2.84772C9.38801 2.92623 9.59209 3.04976 9.76487 3.21062C9.93766 3.37147 10.0755 3.5662 10.1697 3.78265C10.2639 3.99911 10.3125 4.23265 10.3125 4.46872V6.18747H8.59375C8.14932 6.18633 7.72261 6.01308 7.40317 5.70409C7.08374 5.39509 6.89641 4.97437 6.88051 4.53022C6.86461 4.08607 7.02137 3.65303 7.3179 3.32199C7.61442 2.99094 8.02765 2.78762 8.47086 2.7547V2.75427Z" fill="white"/>
<path d="M11.8594 20.625H15.8125C16.5418 20.625 17.2413 20.3353 17.757 19.8195C18.2728 19.3038 18.5625 18.6043 18.5625 17.875V12.7188C18.5625 12.6276 18.5263 12.5401 18.4618 12.4757C18.3974 12.4112 18.3099 12.375 18.2188 12.375H11.8594C11.8138 12.375 11.7701 12.3931 11.7378 12.4253C11.7056 12.4576 11.6875 12.5013 11.6875 12.5469V20.4531C11.6875 20.4987 11.7056 20.5424 11.7378 20.5747C11.7701 20.6069 11.8138 20.625 11.8594 20.625Z" fill="white"/>
</svg>
