<svg width="22" height="22" viewBox="0 0 22 22" fill="none" xmlns="http://www.w3.org/2000/svg">
<g clip-path="url(#clip0_244_7164)">
<path d="M4.38269 22C3.5735 22 3.13625 21.8171 2.897 21.6707C2.56769 21.4775 1.96269 20.9832 1.41131 19.5332C0.444688 16.7942 -0.0317493 13.904 0.000563243 11.0007C0.0184382 7.64567 0.540938 4.80217 1.41131 2.47498C1.96269 1.01061 2.56769 0.512859 2.897 0.323109C3.13694 0.193859 3.5735 0.000671387 4.38269 0.000671387C4.68381 0.000671387 5.04131 0.0295464 5.46413 0.0934839C8.28219 0.615984 10.982 1.64036 13.4384 3.11573H13.4494C15.9451 4.5478 18.1691 6.41367 20.0096 8.62673C20.9838 9.83673 21.102 10.6143 21.102 11.0007C21.102 11.387 20.9838 12.1646 20.0096 13.3746C18.1691 15.5842 15.9458 17.446 13.4494 18.8746H13.4384C10.982 20.3534 8.28219 21.3778 5.46413 21.9003C5.04131 21.9718 4.68381 22 4.38269 22Z" fill="white"/>
</g>
<defs>
<clipPath id="clip0_244_7164">
<rect width="22" height="22" fill="white"/>
</clipPath>
</defs>
</svg>
