<svg width="22" height="22" viewBox="0 0 22 22" fill="none" xmlns="http://www.w3.org/2000/svg">
<path d="M1.76714 13.7685C2.95702 17.735 6.63777 20.625 10.994 20.625C16.3131 20.625 20.6251 16.3156 20.6251 11C20.6251 5.68427 16.3131 1.375 10.994 1.375C5.88985 1.375 1.7134 5.34306 1.38354 10.3606C1.38354 11.8021 1.38354 12.4037 1.76714 13.7685Z" fill="white"/>
<path d="M10.4986 8.63702L8.14181 12.0584C7.58624 12.0332 7.02696 12.1904 6.5627 12.4955L1.38759 10.3664C1.38759 10.3664 1.26784 12.3352 1.76689 13.8025L5.4254 15.3111C5.6091 16.1315 6.17225 16.8511 7.0031 17.1973C8.36242 17.7649 9.92979 17.118 10.4953 15.7589C10.6424 15.4036 10.7111 15.031 10.7011 14.6592L14.1559 12.2526C16.1739 12.2526 17.8141 10.6085 17.8141 8.58945C17.8141 6.57028 16.1739 4.92767 14.1559 4.92767C12.2068 4.92767 10.3893 6.6284 10.4986 8.63702ZM9.93226 15.5226C9.4946 16.5727 8.28714 17.0709 7.23754 16.6338C6.75334 16.4322 6.38777 16.0629 6.17688 15.6226L7.36775 16.1158C8.14181 16.438 9.02985 16.0712 9.3516 15.2979C9.67438 14.5237 9.30822 13.6348 8.53457 13.3126L7.30354 12.8028C7.77853 12.6227 8.31856 12.6161 8.82312 12.826C9.33173 13.0374 9.72642 13.4357 9.93556 13.9446C10.1448 14.4536 10.1439 15.0153 9.93226 15.5226ZM14.1559 11.0299C12.8125 11.0299 11.7188 9.93516 11.7188 8.58945C11.7188 7.24484 12.8125 6.14984 14.1559 6.14984C15.5002 6.14984 16.5939 7.24484 16.5939 8.58945C16.5939 9.93516 15.5002 11.0299 14.1559 11.0299ZM12.3297 8.58574C12.3297 7.57346 13.1498 6.75237 14.16 6.75237C15.1711 6.75237 15.9912 7.57346 15.9912 8.58574C15.9912 9.59815 15.1711 10.4185 14.16 10.4185C13.1498 10.4185 12.3297 9.59815 12.3297 8.58574Z" fill="#1283B4"/>
</svg>
