<svg width="40" height="40" viewBox="0 0 40 40" fill="none" xmlns="http://www.w3.org/2000/svg">
<g clip-path="url(#clip0_1401_1862)">
<path d="M29.6765 31.4359C29.7086 30.449 28.9102 29.6293 27.9282 29.6293H27.9245V29.6287H28.0707C29.024 29.6277 29.7961 28.8541 29.7955 27.9008C29.7949 26.9474 29.0213 26.1802 28.0679 26.1808C27.2729 26.1808 21.73 26.1808 20.8853 26.1808C20.6851 26.1808 20.5432 25.9852 20.6055 25.795L21.235 23.8734C21.7709 22.2379 21.6757 21.1243 21.6757 19.2087C21.6757 18.082 20.7623 17.1689 19.6356 17.1689C18.6121 17.1689 17.7469 17.927 17.6129 18.9417C17.4649 20.0645 17.3648 22.0609 15.509 23.848L14.1989 25.109C13.4692 25.8118 12.4957 26.2043 11.4828 26.2043H9.76196V37.5281C10.2301 37.5278 11.1707 37.5278 11.1713 37.5278C13.6722 37.5263 13.4436 40.0028 16.554 40.0001H27.1396C28.0917 40.0001 28.8635 39.228 28.8635 38.2758C28.8635 37.3234 28.0917 36.5516 27.1396 36.5516H27.4432C28.3801 36.5516 29.1803 35.8228 29.2114 34.8862C29.2441 33.9072 28.4601 33.1031 27.4884 33.1031H27.9077C28.8455 33.1031 29.6463 32.3734 29.6765 31.4359Z" fill="#FFCDBF"/>
<path d="M27.1393 37.9879H16.5536C13.4433 37.9909 13.6719 35.5141 11.171 35.5156C11.1703 35.5156 10.2298 35.5159 9.76196 35.5162V37.5283C10.2298 37.528 11.1703 37.528 11.171 37.528C13.6719 37.5264 13.4433 40.0029 16.5536 40.0002H27.1393C28.0914 40.0002 28.8632 39.2281 28.8632 38.2759C28.8632 37.9 28.7418 37.553 28.5373 37.2698C28.2245 37.704 27.7155 37.9879 27.1393 37.9879Z" fill="#FFBEAB"/>
<path d="M9.27258 25.1865H2.74213C2.24957 25.1865 1.8501 25.586 1.8501 26.0786V37.8748C1.8501 38.3677 2.24927 38.7671 2.74213 38.7671H9.27258C9.76514 38.7671 10.1646 38.3677 10.1646 37.8748V26.0786C10.1646 25.586 9.76514 25.1865 9.27258 25.1865Z" fill="#54A0FF"/>
<path d="M4.26465 37.8751V26.0786C4.26465 25.586 4.66412 25.1865 5.15698 25.1865H2.74213C2.24957 25.1865 1.8501 25.586 1.8501 26.0786V37.8748C1.8501 38.3677 2.24927 38.7671 2.74213 38.7671H5.15668C4.66412 38.7671 4.26465 38.3677 4.26465 37.8751Z" fill="#338DEF"/>
<path d="M11.2564 9.34029C11.4999 9.10744 11.3657 8.70247 11.0291 8.65425L8.42866 8.28438C8.29499 8.26515 8.17964 8.18306 8.11982 8.06435L6.9568 5.7563C6.80635 5.45753 6.37147 5.45753 6.22071 5.7563L5.05799 8.06435C4.99818 8.18306 4.88252 8.26546 4.74885 8.28438L2.14875 8.65425C1.81214 8.70216 1.67756 9.10744 1.9214 9.34029L3.80281 11.1369C3.89955 11.229 3.94349 11.3621 3.92091 11.4927L3.47657 14.0293C3.4192 14.3577 3.77107 14.6082 4.07228 14.4532L6.39802 13.2554C6.51734 13.194 6.66047 13.194 6.7798 13.2554L9.10554 14.4532C9.40675 14.6082 9.75862 14.3577 9.70124 14.0293L9.25691 11.4927C9.23402 11.3621 9.27827 11.229 9.37501 11.1369L11.2564 9.34029Z" fill="#FECA57"/>
<path d="M6.76013 11.0281C6.78302 10.8978 6.73907 10.7648 6.64233 10.6723L4.76062 8.87573C4.57415 8.69781 4.60986 8.41888 4.78778 8.27637C4.77496 8.27942 4.76214 8.28217 4.74871 8.284L2.14862 8.65417C1.81201 8.70209 1.67773 9.10736 1.92126 9.3399L3.80267 11.1365C3.89941 11.2289 3.94366 11.362 3.92077 11.4923L3.47674 14.0292C3.41906 14.3576 3.77093 14.6082 4.07214 14.4531L6.36767 13.2709L6.76013 11.0281Z" fill="#F4B537"/>
<path d="M4.98828 8.19008L7.58838 7.8199C7.71777 7.80159 7.82977 7.72346 7.89111 7.61085L6.95697 5.7563C6.80621 5.45753 6.37134 5.45753 6.22089 5.7563L5.05786 8.06435C5.03101 8.11745 4.99255 8.16292 4.94678 8.19893C4.96021 8.19557 4.97394 8.19221 4.98828 8.19008Z" fill="#F4B537"/>
<path d="M38.0393 9.34029C38.2828 9.10744 38.1482 8.70247 37.8116 8.65425L35.2115 8.28438C35.0779 8.26515 34.9622 8.18306 34.9024 8.06435L33.7397 5.7563C33.5892 5.45753 33.154 5.45753 33.0036 5.7563L31.8406 8.06435C31.7807 8.18306 31.6654 8.26546 31.5317 8.28438L28.9316 8.65425C28.5947 8.70216 28.4604 9.10744 28.704 9.34029L30.5854 11.1369C30.6821 11.229 30.7264 11.3621 30.7035 11.4927L30.2594 14.0293C30.2018 14.3577 30.5539 14.6082 30.8548 14.4532L33.1806 13.2554C33.3002 13.194 33.443 13.194 33.5627 13.2554L35.8881 14.4532C36.1893 14.6082 36.5412 14.3577 36.4838 14.0293L36.0395 11.4927C36.0166 11.3621 36.0608 11.229 36.1576 11.1369L38.0393 9.34029Z" fill="#FECA57"/>
<path d="M33.5431 11.0281C33.566 10.8978 33.5217 10.7648 33.425 10.6723L31.5436 8.87573C31.3571 8.69781 31.3928 8.41888 31.5704 8.27637C31.5576 8.27942 31.5448 8.28217 31.5316 8.284L28.9316 8.65417C28.5949 8.70209 28.4604 9.10736 28.7039 9.3399L30.5856 11.1365C30.6823 11.2289 30.7263 11.362 30.7034 11.4923L30.2594 14.0292C30.202 14.3576 30.5539 14.6082 30.8551 14.4531L33.1506 13.2709L33.5431 11.0281Z" fill="#F4B537"/>
<path d="M31.771 8.19008L34.3711 7.8199C34.5008 7.80159 34.6128 7.72346 34.6738 7.61085L33.7397 5.7563C33.5892 5.45753 33.1541 5.45753 33.0036 5.7563L31.8409 8.06435C31.814 8.11745 31.7756 8.16292 31.7295 8.19893C31.7432 8.19557 31.7567 8.19221 31.771 8.19008Z" fill="#F4B537"/>
<path d="M27.5289 6.1573C27.9229 5.78102 27.7053 5.12581 27.1612 5.04829L22.9568 4.44984C22.7407 4.41902 22.5537 4.28627 22.4572 4.09431L20.577 0.36232C20.3335 -0.120773 19.6301 -0.120773 19.3869 0.36232L17.5067 4.09431C17.4099 4.28627 17.2232 4.41902 17.0068 4.44984L12.8027 5.04829C12.2583 5.12581 12.041 5.78102 12.4346 6.1573L15.4769 9.06197C15.6335 9.2115 15.7049 9.42665 15.668 9.63753L14.9496 13.7391C14.8568 14.2701 15.426 14.6751 15.9127 14.4245L19.6731 12.4879C19.8666 12.3884 20.0973 12.3884 20.2908 12.4879L24.0512 14.4245C24.5379 14.6751 25.1071 14.2701 25.014 13.7391L24.2959 9.63753C24.259 9.42665 24.3304 9.2115 24.4866 9.06197L27.5289 6.1573Z" fill="#FECA57"/>
<path d="M19.8459 3.98567C20.062 3.95485 20.2487 3.82179 20.3455 3.63014L21.2842 1.76704L20.5765 0.36232C20.3329 -0.120773 19.6295 -0.120773 19.3863 0.36232L17.5061 4.09431C17.4518 4.20143 17.3691 4.28963 17.2693 4.35249L19.8459 3.98567Z" fill="#F4B537"/>
<path d="M17.7893 13.2751L18.5073 9.17328C18.5443 8.9624 18.4729 8.74725 18.3166 8.59802L15.2743 5.69305C14.9539 5.38727 15.0381 4.89685 15.3732 4.68262L12.8027 5.04852C12.2583 5.12604 12.041 5.78125 12.4346 6.15753L15.4769 9.06219C15.6335 9.21173 15.7049 9.42688 15.668 9.63776L14.9496 13.7393C14.8568 14.2703 15.4257 14.6753 15.9127 14.4247L17.7838 13.461C17.7767 13.4015 17.778 13.3392 17.7893 13.2751Z" fill="#F4B537"/>
<path d="M24.3784 32.2979C24.3784 32.7426 24.7388 33.103 25.1832 33.103H27.909C28.8276 33.103 29.6125 32.4026 29.6732 31.4932H25.1835C24.7388 31.4932 24.3784 31.8536 24.3784 32.2979Z" fill="#FFBEAB"/>
<path d="M24.3784 28.8233C24.3784 29.2679 24.7388 29.6284 25.1832 29.6284H28.0717C28.9854 29.6274 29.7306 28.9167 29.791 28.0186H25.1832C24.7388 28.0186 24.3784 28.379 24.3784 28.8233Z" fill="#FFBEAB"/>
<path d="M29.2081 34.9414H25.1832C24.7388 34.9414 24.3784 35.3018 24.3784 35.7462C24.3784 36.1908 24.7388 36.5512 25.1832 36.5512H27.4445C28.3628 36.5512 29.1474 35.8508 29.2081 34.9414Z" fill="#FFBEAB"/>
</g>
<defs>
<clipPath id="clip0_1401_1862">
<rect width="40" height="40" fill="white"/>
</clipPath>
</defs>
</svg>
