<svg width="133" height="36" viewBox="0 0 133 36" fill="none" xmlns="http://www.w3.org/2000/svg">
<g clip-path="url(#clip0_971_3526)">
<rect width="36" height="36" rx="10.8" fill="#FF6229"/>
<rect width="36" height="36" fill="url(#paint0_linear_971_3526)"/>
<g filter="url(#filter0_d_971_3526)">
<path d="M4.5 7.875C4.5 6.01104 6.01104 4.5 7.875 4.5H14.625C16.489 4.5 18 6.01104 18 7.875V14.5029C18.0002 14.5435 18.0002 14.5842 18.0002 14.625C18.0002 16.4863 19.5069 17.9957 21.3672 18C21.3698 18 21.3724 18 21.375 18H28.125C29.989 18 31.5 19.511 31.5 21.375V28.125C31.5 29.989 29.989 31.5 28.125 31.5H21.375C19.511 31.5 18 29.989 18 28.125V21.375C18 21.3656 18 21.3563 18.0001 21.3469C17.985 19.4959 16.4798 18 14.6252 18C14.6165 18 14.6078 18 14.5991 18H7.875C6.01104 18 4.5 16.489 4.5 14.625V7.875Z" fill="url(#paint1_linear_971_3526)"/>
</g>
</g>
<rect x="0.9" y="0.9" width="34.2" height="34.2" rx="9.9" stroke="url(#paint2_linear_971_3526)" stroke-width="1.8"/>
<path d="M51.414 25.286C50.226 25.286 49.1553 25.0147 48.202 24.472C47.2633 23.9293 46.5227 23.108 45.98 22.008C45.4373 20.908 45.166 19.5293 45.166 17.872C45.166 16.6693 45.32 15.5987 45.628 14.66C45.936 13.7067 46.3907 12.9 46.992 12.24C47.5933 11.5653 48.3267 11.0593 49.192 10.722C50.0573 10.37 51.062 10.194 52.206 10.194C53.0713 10.194 53.8487 10.2967 54.538 10.502C55.242 10.6927 55.8507 10.9787 56.364 11.36C56.8773 11.7413 57.2807 12.2033 57.574 12.746C57.8673 13.2887 58.036 13.9047 58.08 14.594L55.44 15.386C55.4107 14.726 55.2347 14.1833 54.912 13.758C54.604 13.3327 54.2007 13.0173 53.702 12.812C53.218 12.6067 52.69 12.504 52.118 12.504C51.282 12.504 50.5633 12.6873 49.962 13.054C49.3607 13.4207 48.8987 13.9927 48.576 14.77C48.2533 15.5473 48.092 16.5447 48.092 17.762C48.092 18.686 48.1873 19.4853 48.378 20.16C48.5687 20.82 48.84 21.3627 49.192 21.788C49.544 22.1987 49.9693 22.5067 50.468 22.712C50.9667 22.9027 51.5167 22.998 52.118 22.998C52.8073 22.998 53.4013 22.8807 53.9 22.646C54.4133 22.4113 54.8167 22.0447 55.11 21.546C55.418 21.0473 55.6013 20.4167 55.66 19.654H52.712V17.586H58.41V20.094V25H56.386L56.562 21.194H56.188C55.968 22.1033 55.66 22.866 55.264 23.482C54.868 24.0833 54.3547 24.538 53.724 24.846C53.0933 25.1393 52.3233 25.286 51.414 25.286ZM63.9076 25.286C63.2769 25.286 62.7123 25.1687 62.2136 24.934C61.7149 24.6847 61.3189 24.318 61.0256 23.834C60.7469 23.35 60.6076 22.7487 60.6076 22.03C60.6076 21.4287 60.7176 20.9153 60.9376 20.49C61.1723 20.0647 61.5169 19.72 61.9716 19.456C62.4263 19.1773 62.9909 18.95 63.6656 18.774C64.3403 18.5833 65.1323 18.422 66.0416 18.29C66.5403 18.2167 66.9436 18.1433 67.2516 18.07C67.5743 17.9967 67.8089 17.8867 67.9556 17.74C68.1023 17.5787 68.1756 17.344 68.1756 17.036C68.1756 16.5813 68.0143 16.1927 67.6916 15.87C67.3836 15.5327 66.8776 15.364 66.1736 15.364C65.7483 15.364 65.3376 15.4373 64.9416 15.584C64.5603 15.7307 64.2303 15.9653 63.9516 16.288C63.6729 16.596 63.4823 17.0067 63.3796 17.52L60.8936 16.75C61.0549 16.1633 61.2896 15.6573 61.5976 15.232C61.9056 14.792 62.2869 14.418 62.7416 14.11C63.1963 13.802 63.7169 13.5747 64.3036 13.428C64.8903 13.2813 65.5356 13.208 66.2396 13.208C67.3103 13.208 68.1903 13.384 68.8796 13.736C69.5689 14.0733 70.0823 14.6087 70.4196 15.342C70.7569 16.0607 70.9256 16.992 70.9256 18.136V20.292C70.9256 20.7907 70.9329 21.3113 70.9476 21.854C70.9769 22.382 71.0063 22.9173 71.0356 23.46C71.0796 23.988 71.1309 24.5013 71.1896 25H68.7036C68.6449 24.5893 68.5936 24.1493 68.5496 23.68C68.5056 23.2107 68.4689 22.734 68.4396 22.25H68.0876C67.8823 22.8073 67.5889 23.3207 67.2076 23.79C66.8263 24.2447 66.3569 24.6113 65.7996 24.89C65.2569 25.154 64.6263 25.286 63.9076 25.286ZM65.0076 23.24C65.3009 23.24 65.5943 23.1887 65.8876 23.086C66.1956 22.9833 66.4963 22.8293 66.7896 22.624C67.0829 22.4187 67.3543 22.1693 67.6036 21.876C67.8529 21.568 68.0656 21.2087 68.2416 20.798L68.1976 18.84L68.7256 18.928C68.4763 19.1333 68.1683 19.2947 67.8016 19.412C67.4349 19.5293 67.0463 19.6173 66.6356 19.676C66.2396 19.7347 65.8363 19.808 65.4256 19.896C65.0296 19.9693 64.6703 20.072 64.3476 20.204C64.0249 20.3213 63.7683 20.4973 63.5776 20.732C63.3869 20.952 63.2916 21.26 63.2916 21.656C63.2916 22.1547 63.4529 22.5433 63.7756 22.822C64.0983 23.1007 64.5089 23.24 65.0076 23.24ZM73.9214 25V17.718V13.494H76.1874L76.1214 17.014H76.5174C76.7227 16.1633 76.9867 15.4593 77.3094 14.902C77.6467 14.33 78.0574 13.9047 78.5414 13.626C79.0254 13.3473 79.5827 13.208 80.2134 13.208C80.9174 13.208 81.4967 13.3693 81.9514 13.692C82.406 14.0147 82.7507 14.462 82.9854 15.034C83.2347 15.5913 83.3887 16.244 83.4474 16.992H83.7994C83.99 16.1413 84.2614 15.4373 84.6134 14.88C84.98 14.3227 85.42 13.9047 85.9334 13.626C86.4614 13.3473 87.0407 13.208 87.6714 13.208C88.2874 13.208 88.83 13.3327 89.2994 13.582C89.7687 13.8313 90.1574 14.198 90.4654 14.682C90.788 15.1513 91.0227 15.7453 91.1694 16.464C91.3307 17.1827 91.4114 18.0113 91.4114 18.95V25H88.6174V19.302C88.6174 18.4807 88.544 17.7987 88.3974 17.256C88.2654 16.7133 88.0527 16.31 87.7594 16.046C87.4807 15.7673 87.114 15.628 86.6594 15.628C86.146 15.628 85.6987 15.7967 85.3174 16.134C84.936 16.4713 84.6354 16.948 84.4154 17.564C84.1954 18.1653 84.0634 18.8547 84.0194 19.632V25H81.2914V19.434C81.2914 18.5833 81.218 17.8793 81.0714 17.322C80.9247 16.75 80.7047 16.3247 80.4114 16.046C80.118 15.7673 79.744 15.628 79.2894 15.628C78.7614 15.628 78.3067 15.804 77.9254 16.156C77.5587 16.508 77.2654 16.992 77.0454 17.608C76.84 18.224 76.7227 18.9133 76.6934 19.676V25H73.9214ZM94.353 25V9.358H97.081V18.136C97.5797 17.828 98.0563 17.4907 98.511 17.124C98.9657 16.7427 99.3837 16.3467 99.765 15.936C100.146 15.5253 100.484 15.1147 100.777 14.704C101.07 14.2787 101.312 13.8753 101.503 13.494H104.693C104.458 14.066 104.15 14.6307 103.769 15.188C103.388 15.7453 102.94 16.2587 102.427 16.728C101.928 17.1973 101.364 17.608 100.733 17.96C100.102 18.2973 99.4277 18.532 98.709 18.664V18.972C99.6183 18.84 100.381 18.884 100.997 19.104C101.613 19.324 102.134 19.654 102.559 20.094C102.984 20.534 103.336 21.0473 103.615 21.634C103.908 22.206 104.18 22.7927 104.429 23.394L105.001 25H101.943L101.591 23.944C101.312 23.2107 101.019 22.5653 100.711 22.008C100.418 21.436 100.044 20.996 99.589 20.688C99.149 20.3653 98.577 20.204 97.873 20.204H97.081V25H94.353ZM111.854 25.286C110.724 25.286 109.727 25.0587 108.862 24.604C107.996 24.1347 107.314 23.4527 106.816 22.558C106.332 21.6487 106.09 20.534 106.09 19.214C106.09 17.8647 106.339 16.75 106.838 15.87C107.351 14.9753 108.04 14.308 108.906 13.868C109.771 13.428 110.746 13.208 111.832 13.208C112.961 13.208 113.958 13.4353 114.824 13.89C115.689 14.3447 116.371 15.0267 116.87 15.936C117.368 16.8307 117.617 17.9453 117.617 19.28C117.617 20.6293 117.368 21.7513 116.87 22.646C116.371 23.5407 115.682 24.208 114.802 24.648C113.936 25.0733 112.954 25.286 111.854 25.286ZM111.964 23.174C112.58 23.174 113.1 23.0347 113.526 22.756C113.951 22.4627 114.274 22.03 114.494 21.458C114.728 20.886 114.846 20.204 114.846 19.412C114.846 18.576 114.721 17.8647 114.472 17.278C114.237 16.6767 113.892 16.2147 113.438 15.892C112.998 15.5693 112.44 15.408 111.766 15.408C111.179 15.408 110.666 15.5547 110.226 15.848C109.786 16.1267 109.448 16.5447 109.214 17.102C108.994 17.6593 108.884 18.3487 108.884 19.17C108.884 20.4607 109.155 21.4507 109.698 22.14C110.255 22.8293 111.01 23.174 111.964 23.174ZM120.113 25V17.982V13.494H122.423L122.357 17.014H122.753C122.958 16.1487 123.229 15.4373 123.567 14.88C123.919 14.3227 124.366 13.9047 124.909 13.626C125.451 13.3473 126.082 13.208 126.801 13.208C128.106 13.208 129.096 13.67 129.771 14.594C130.46 15.518 130.805 16.948 130.805 18.884V25H128.011V19.17C128.011 17.9233 127.82 17.014 127.439 16.442C127.072 15.8553 126.522 15.562 125.789 15.562C125.173 15.562 124.652 15.76 124.227 16.156C123.801 16.5373 123.471 17.0507 123.237 17.696C123.017 18.3267 122.899 19.0233 122.885 19.786V25H120.113Z" fill="#303030"/>
<defs>
<filter id="filter0_d_971_3526" x="1.8" y="1.125" width="32.4" height="37.8" filterUnits="userSpaceOnUse" color-interpolation-filters="sRGB">
<feFlood flood-opacity="0" result="BackgroundImageFix"/>
<feColorMatrix in="SourceAlpha" type="matrix" values="0 0 0 0 0 0 0 0 0 0 0 0 0 0 0 0 0 0 127 0" result="hardAlpha"/>
<feMorphology radius="1.35" operator="erode" in="SourceAlpha" result="effect1_dropShadow_971_3526"/>
<feOffset dy="2.025"/>
<feGaussianBlur stdDeviation="2.025"/>
<feComposite in2="hardAlpha" operator="out"/>
<feColorMatrix type="matrix" values="0 0 0 0 0.141176 0 0 0 0 0.141176 0 0 0 0 0.141176 0 0 0 0.1 0"/>
<feBlend mode="normal" in2="BackgroundImageFix" result="effect1_dropShadow_971_3526"/>
<feBlend mode="normal" in="SourceGraphic" in2="effect1_dropShadow_971_3526" result="shape"/>
</filter>
<linearGradient id="paint0_linear_971_3526" x1="18" y1="4.47035e-07" x2="19.5" y2="36" gradientUnits="userSpaceOnUse">
<stop stop-color="white" stop-opacity="0"/>
<stop offset="1" stop-color="white" stop-opacity="0.12"/>
</linearGradient>
<linearGradient id="paint1_linear_971_3526" x1="18" y1="4.5" x2="18" y2="31.5" gradientUnits="userSpaceOnUse">
<stop stop-color="white" stop-opacity="0.8"/>
<stop offset="1" stop-color="white" stop-opacity="0.5"/>
</linearGradient>
<linearGradient id="paint2_linear_971_3526" x1="18" y1="0" x2="18" y2="36" gradientUnits="userSpaceOnUse">
<stop stop-color="white" stop-opacity="0.12"/>
<stop offset="1" stop-color="white" stop-opacity="0"/>
</linearGradient>
<clipPath id="clip0_971_3526">
<rect width="36" height="36" rx="10.8" fill="white"/>
</clipPath>
</defs>
</svg>
