<svg width="140" height="36" viewBox="0 0 140 36" fill="none" xmlns="http://www.w3.org/2000/svg">
<g clip-path="url(#clip0_971_4173)">
<rect width="36" height="36" rx="10.8" fill="#FF6229"/>
<rect width="36" height="36" fill="url(#paint0_linear_971_4173)"/>
<g filter="url(#filter0_d_971_4173)">
<path d="M4.5 7.875C4.5 6.01104 6.01104 4.5 7.875 4.5H14.625C16.489 4.5 18 6.01104 18 7.875V14.5029C18.0002 14.5435 18.0002 14.5842 18.0002 14.625C18.0002 16.4863 19.5069 17.9957 21.3672 18C21.3698 18 21.3724 18 21.375 18H28.125C29.989 18 31.5 19.511 31.5 21.375V28.125C31.5 29.989 29.989 31.5 28.125 31.5H21.375C19.511 31.5 18 29.989 18 28.125V21.375C18 21.3656 18 21.3563 18.0001 21.3469C17.985 19.4959 16.4798 18 14.6252 18C14.6165 18 14.6078 18 14.5991 18H7.875C6.01104 18 4.5 16.489 4.5 14.625V7.875Z" fill="url(#paint1_linear_971_4173)"/>
</g>
</g>
<rect x="0.9" y="0.9" width="34.2" height="34.2" rx="9.9" stroke="url(#paint2_linear_971_4173)" stroke-width="1.8"/>
<path d="M53.024 26.288C51.44 26.288 50.048 25.928 48.848 25.208C47.664 24.488 46.744 23.488 46.088 22.208C45.432 20.912 45.104 19.4 45.104 17.672C45.104 15.96 45.44 14.448 46.112 13.136C46.784 11.808 47.744 10.776 48.992 10.04C50.256 9.288 51.752 8.912 53.48 8.912C55.432 8.912 57.048 9.384 58.328 10.328C59.624 11.256 60.464 12.552 60.848 14.216H57.608C57.368 13.384 56.896 12.736 56.192 12.272C55.488 11.808 54.576 11.576 53.456 11.576C52.32 11.576 51.344 11.824 50.528 12.32C49.728 12.8 49.112 13.504 48.68 14.432C48.264 15.344 48.056 16.432 48.056 17.696C48.056 18.96 48.264 20.048 48.68 20.96C49.112 21.872 49.72 22.568 50.504 23.048C51.288 23.512 52.208 23.744 53.264 23.744C54.832 23.744 56.016 23.304 56.816 22.424C57.616 21.544 58.088 20.4 58.232 18.992H53.888V16.808H61.136V26H58.496L58.256 23.696C57.888 24.24 57.464 24.712 56.984 25.112C56.504 25.496 55.936 25.792 55.28 26C54.64 26.192 53.888 26.288 53.024 26.288ZM68.1791 26.288C67.1871 26.288 66.3631 26.12 65.7071 25.784C65.0511 25.448 64.5631 25 64.2431 24.44C63.9231 23.88 63.7631 23.272 63.7631 22.616C63.7631 21.848 63.9551 21.184 64.3391 20.624C64.7391 20.064 65.3231 19.632 66.0911 19.328C66.8591 19.008 67.8031 18.848 68.9231 18.848H71.9711C71.9711 18.208 71.8831 17.68 71.7071 17.264C71.5311 16.832 71.2591 16.512 70.8911 16.304C70.5231 16.096 70.0511 15.992 69.4751 15.992C68.8191 15.992 68.2591 16.144 67.7951 16.448C67.3311 16.736 67.0431 17.184 66.9311 17.792H64.0991C64.1951 16.928 64.4831 16.192 64.9631 15.584C65.4431 14.96 66.0751 14.48 66.8591 14.144C67.6591 13.792 68.5311 13.616 69.4751 13.616C70.6111 13.616 71.5791 13.816 72.3791 14.216C73.1791 14.6 73.7871 15.16 74.2031 15.896C74.6351 16.616 74.8511 17.488 74.8511 18.512V26H72.4031L72.1151 24.056C71.9551 24.376 71.7471 24.672 71.4911 24.944C71.2511 25.216 70.9711 25.456 70.6511 25.664C70.3311 25.856 69.9631 26.008 69.5471 26.12C69.1471 26.232 68.6911 26.288 68.1791 26.288ZM68.8271 24.008C69.2911 24.008 69.6991 23.928 70.0511 23.768C70.4191 23.592 70.7311 23.352 70.9871 23.048C71.2591 22.728 71.4671 22.376 71.6111 21.992C71.7551 21.608 71.8511 21.2 71.8991 20.768V20.72H69.2351C68.6751 20.72 68.2111 20.792 67.8431 20.936C67.4751 21.064 67.2111 21.256 67.0511 21.512C66.8911 21.768 66.8111 22.064 66.8111 22.4C66.8111 22.736 66.8911 23.024 67.0511 23.264C67.2111 23.504 67.4431 23.688 67.7471 23.816C68.0511 23.944 68.4111 24.008 68.8271 24.008ZM77.9283 26V13.904H80.4723L80.7123 15.56C81.0963 14.952 81.6003 14.48 82.2243 14.144C82.8643 13.792 83.5923 13.616 84.4083 13.616C85.0163 13.616 85.5603 13.696 86.0403 13.856C86.5363 14.016 86.9683 14.256 87.3363 14.576C87.7203 14.896 88.0323 15.296 88.2723 15.776C88.7203 15.104 89.3043 14.576 90.0243 14.192C90.7443 13.808 91.5283 13.616 92.3763 13.616C93.3843 13.616 94.2403 13.824 94.9443 14.24C95.6483 14.64 96.1843 15.24 96.5523 16.04C96.9203 16.824 97.1043 17.792 97.1043 18.944V26H94.2483V19.232C94.2483 18.208 94.0403 17.424 93.6243 16.88C93.2083 16.336 92.5923 16.064 91.7763 16.064C91.2163 16.064 90.7203 16.2 90.2883 16.472C89.8723 16.744 89.5443 17.144 89.3043 17.672C89.0643 18.184 88.9443 18.816 88.9443 19.568V26H86.0883V19.232C86.0883 18.208 85.8803 17.424 85.4643 16.88C85.0483 16.336 84.4243 16.064 83.5923 16.064C83.0643 16.064 82.5843 16.2 82.1523 16.472C81.7363 16.744 81.4083 17.144 81.1683 17.672C80.9283 18.184 80.8083 18.816 80.8083 19.568V26H77.9283ZM107.947 26L102.595 19.376L107.395 13.904H110.827L104.851 20.552V18.32L111.547 26H107.947ZM100.147 26V8.72H103.027V26H100.147ZM118.162 26.288C117.01 26.288 115.97 26.024 115.042 25.496C114.13 24.952 113.41 24.208 112.882 23.264C112.37 22.304 112.114 21.208 112.114 19.976C112.114 18.712 112.378 17.608 112.906 16.664C113.434 15.704 114.154 14.96 115.066 14.432C115.994 13.888 117.034 13.616 118.186 13.616C119.338 13.616 120.37 13.888 121.282 14.432C122.21 14.96 122.93 15.696 123.442 16.64C123.97 17.584 124.234 18.688 124.234 19.952C124.234 21.216 123.97 22.32 123.442 23.264C122.914 24.208 122.186 24.952 121.258 25.496C120.346 26.024 119.314 26.288 118.162 26.288ZM118.162 23.816C118.738 23.816 119.258 23.672 119.722 23.384C120.202 23.096 120.586 22.664 120.874 22.088C121.162 21.512 121.306 20.8 121.306 19.952C121.306 19.104 121.162 18.4 120.874 17.84C120.602 17.264 120.226 16.832 119.746 16.544C119.282 16.256 118.762 16.112 118.186 16.112C117.626 16.112 117.106 16.256 116.626 16.544C116.146 16.832 115.762 17.264 115.474 17.84C115.186 18.4 115.042 19.104 115.042 19.952C115.042 20.8 115.186 21.512 115.474 22.088C115.762 22.664 116.138 23.096 116.602 23.384C117.082 23.672 117.602 23.816 118.162 23.816ZM127.053 26V13.904H129.597L129.813 15.92C130.181 15.216 130.709 14.656 131.397 14.24C132.085 13.824 132.901 13.616 133.845 13.616C134.821 13.616 135.653 13.824 136.341 14.24C137.029 14.64 137.557 15.232 137.925 16.016C138.309 16.8 138.501 17.776 138.501 18.944V26H135.621V19.208C135.621 18.2 135.397 17.424 134.949 16.88C134.501 16.336 133.837 16.064 132.957 16.064C132.381 16.064 131.861 16.2 131.397 16.472C130.949 16.744 130.589 17.144 130.317 17.672C130.061 18.184 129.933 18.808 129.933 19.544V26H127.053Z" fill="white"/>
<defs>
<filter id="filter0_d_971_4173" x="1.8" y="1.1248" width="32.4" height="37.7999" filterUnits="userSpaceOnUse" color-interpolation-filters="sRGB">
<feFlood flood-opacity="0" result="BackgroundImageFix"/>
<feColorMatrix in="SourceAlpha" type="matrix" values="0 0 0 0 0 0 0 0 0 0 0 0 0 0 0 0 0 0 127 0" result="hardAlpha"/>
<feMorphology radius="1.35" operator="erode" in="SourceAlpha" result="effect1_dropShadow_971_4173"/>
<feOffset dy="2.025"/>
<feGaussianBlur stdDeviation="2.025"/>
<feComposite in2="hardAlpha" operator="out"/>
<feColorMatrix type="matrix" values="0 0 0 0 0.141176 0 0 0 0 0.141176 0 0 0 0 0.141176 0 0 0 0.1 0"/>
<feBlend mode="normal" in2="BackgroundImageFix" result="effect1_dropShadow_971_4173"/>
<feBlend mode="normal" in="SourceGraphic" in2="effect1_dropShadow_971_4173" result="shape"/>
</filter>
<linearGradient id="paint0_linear_971_4173" x1="18" y1="4.47035e-07" x2="19.5" y2="36" gradientUnits="userSpaceOnUse">
<stop stop-color="white" stop-opacity="0"/>
<stop offset="1" stop-color="white" stop-opacity="0.12"/>
</linearGradient>
<linearGradient id="paint1_linear_971_4173" x1="18" y1="4.5" x2="18" y2="31.5" gradientUnits="userSpaceOnUse">
<stop stop-color="white" stop-opacity="0.8"/>
<stop offset="1" stop-color="white" stop-opacity="0.5"/>
</linearGradient>
<linearGradient id="paint2_linear_971_4173" x1="18" y1="0" x2="18" y2="36" gradientUnits="userSpaceOnUse">
<stop stop-color="white" stop-opacity="0.12"/>
<stop offset="1" stop-color="white" stop-opacity="0"/>
</linearGradient>
<clipPath id="clip0_971_4173">
<rect width="36" height="36" rx="10.8" fill="white"/>
</clipPath>
</defs>
</svg>
