<svg id="Layer_1" enable-background="new 0 0 800 800" viewBox="0 0 800 800" xmlns="http://www.w3.org/2000/svg"><g fill="#1c274c"><path d="m400 691.7c-64.8 0-111.7 0-149.6-5.1-43.5-5.8-73-18.6-95.7-41.3s-35.4-52.2-41.3-95.7c-5.1-38-5.1-84.8-5.1-149.6v-66.7c0-64.8 0-111.7 5.1-149.6 5.8-43.5 18.6-73 41.3-95.7s52.2-35.4 95.7-41.3c38-5.1 84.8-5.1 149.6-5.1s111.7 0 149.6 5.1c43.5 5.8 73 18.6 95.7 41.3s35.4 52.2 41.3 95.7c5.1 38 5.1 84.8 5.1 149.6v66.7c0 64.8 0 111.7-5.1 149.6-5.8 43.5-18.6 73-41.3 95.7s-52.2 35.4-95.7 41.3c-37.9 5.1-84.8 5.1-149.6 5.1zm0-600c-118.7 0-178.2 0-209.9 31.7s-31.7 91.3-31.7 209.9v66.7c0 118.7 0 178.2 31.7 209.9s91.3 31.7 209.9 31.7c118.7 0 178.2 0 209.9-31.7s31.7-91.3 31.7-209.9v-66.7c0-118.7 0-178.2-31.7-209.9s-91.2-31.7-209.9-31.7z"/><path d="m666.7 458.3h-533.4c-13.8 0-25-11.2-25-25s11.2-25 25-25h533.3c13.8 0 25 11.2 25 25s-11.1 25-24.9 25z"/><path d="m566.7 558.3h-50c-13.8 0-25-11.2-25-25s11.2-25 25-25h50c13.8 0 25 11.2 25 25s-11.2 25-25 25z"/><path d="m283.3 558.3h-50c-13.8 0-25-11.2-25-25s11.2-25 25-25h50c13.8 0 25 11.2 25 25s-11.2 25-25 25z"/><path d="m283.3 758.3h-50c-32.2 0-58.3-26.2-58.3-58.3v-50c0-13.8 11.2-25 25-25s25 11.2 25 25v50c0 4.6 3.7 8.3 8.3 8.3h50c4.6 0 8.3-3.7 8.3-8.3v-33.3c0-13.8 11.2-25 25-25s25 11.2 25 25v33.3c.1 32.2-26.1 58.3-58.3 58.3z"/><path d="m566.7 758.3h-50c-32.2 0-58.3-26.2-58.3-58.3v-33.3c0-13.8 11.2-25 25-25s25 11.2 25 25v33.3c0 4.6 3.7 8.3 8.3 8.3h50c4.6 0 8.3-3.7 8.3-8.3v-50c0-13.8 11.2-25 25-25s25 11.2 25 25v50c0 32.2-26.2 58.3-58.3 58.3z"/><path d="m666.7 458.3c-7.6 0-15.1-3.5-20-10-8.3-11-6-26.7 5-35l53.3-40c2.1-1.6 3.3-4.1 3.3-6.7v-33.3c0-4.6-3.7-8.3-8.3-8.3h-33.3c-13.8 0-25-11.2-25-25s11.2-25 25-25h33.3c32.2 0 58.3 26.2 58.3 58.3v33.3c0 18.3-8.7 35.7-23.3 46.7l-53.3 40c-4.5 3.4-9.8 5-15 5z"/><path d="m133.3 458.3c-5.2 0-10.5-1.6-15-5l-53.3-40c-14.6-11-23.3-28.4-23.3-46.7v-33.3c0-32.2 26.2-58.3 58.3-58.3h33.3c13.8 0 25 11.2 25 25s-11.2 25-25 25h-33.3c-4.6 0-8.3 3.7-8.3 8.3v33.3c0 2.6 1.2 5.1 3.3 6.7l53.3 40c11 8.3 13.3 24 5 35-4.9 6.6-12.4 10-20 10z"/><path d="m650 191.7h-500c-13.8 0-25-11.2-25-25s11.2-25 25-25h500c13.8 0 25 11.2 25 25s-11.2 25-25 25z"/></g></svg>