<svg id="Layer_1" enable-background="new 0 0 800 800" viewBox="0 0 800 800" xmlns="http://www.w3.org/2000/svg"><g fill="#1c274c"><path d="m500 758.3h-200c-48.9 0-84.2 0-113.1-3.9-34-4.6-57.3-14.7-75.3-32.7s-28.2-41.3-32.7-75.3c-3.9-28.9-3.9-64.2-3.9-113.1v-200c0-48.9 0-84.2 3.9-113.1 4.6-34 14.7-57.3 32.7-75.3 33.5-33.5 80.9-36.1 154.9-36.6l.3 50c-69.4.4-101.4 3.5-119.8 21.9-22 22-22 65.8-22 153v200c0 87.3 0 131.1 22 153 22 22 65.8 22 153 22h200c87.3 0 131.1 0 153-22 22-22 22-65.8 22-153v-200c0-87.3 0-131.1-22-153-18.4-18.4-50.4-21.5-119.8-21.9l.3-50c74.1.4 121.4 3.1 154.9 36.6 18.1 18.1 28.2 41.3 32.7 75.3 3.9 28.9 3.9 64.2 3.9 113.1v200c0 48.9 0 84.2-3.9 113.1-4.6 34-14.7 57.3-32.7 75.3s-41.3 28.2-75.3 32.7c-28.9 3.9-64.2 3.9-113.1 3.9z"/><path d="m357.1 525c-6.1 0-12.3-2.2-17.1-6.7l-57.1-53.3c-10.1-9.4-10.6-25.2-1.2-35.3s25.2-10.6 35.3-1.2l40.1 37.4 125.8-117.4c10.1-9.4 25.9-8.9 35.3 1.2s8.9 25.9-1.2 35.3l-142.8 133.3c-4.8 4.5-10.9 6.7-17.1 6.7z"/><path d="m483.3 225h-166.6c-41.4 0-75-33.6-75-75v-33.3c0-41.4 33.6-75 75-75h166.7c41.4 0 75 33.6 75 75v33.3c-.1 41.4-33.7 75-75.1 75zm-166.6-133.3c-13.8 0-25 11.2-25 25v33.3c0 13.8 11.2 25 25 25h166.7c13.8 0 25-11.2 25-25v-33.3c0-13.8-11.2-25-25-25z"/></g></svg>