<svg id="Layer_1" enable-background="new 0 0 800 800" viewBox="0 0 800 800" xmlns="http://www.w3.org/2000/svg"><path d="m729.2 478.2c-30.2-22.8-74-22.8-104.1 0l-60.2 45.5c-6.2 4.7-12.6 9.3-19.2 13.6-.3-18.1-7-35.3-19.3-49.1-5.9-6.6-12.9-12.3-20.9-17.1-48.2-28.7-111.3-36.6-182.6-22.8-45.3 8.8-92.2 26.3-133.6 49.4-8.4-32.2-37.8-56.1-72.6-56.1-41.4 0-75 33.6-75 75v166.7c0 41.4 33.6 75 75 75 34 0 62.7-22.7 71.9-53.7h53.4c32 0 64.1 3.3 95.5 9.8 34.3 7.1 69.7 10.6 104.9 10.6 27.5 0 55-2.2 81.8-6.5 35.6-5.8 65-14.4 89.9-26.4 33.4-16.1 59.3-32.6 76.9-48.9 17.2-15.9 36.4-40.9 57.3-74.3 18.7-30.1 10.7-68.2-19.1-90.7zm-587.5 205.1c0 13.8-11.2 25-25 25s-25-11.2-25-25v-166.6c0-13.8 11.2-25 25-25s25 11.2 25 25zm564.1-140.8c-18.2 29.2-35.1 51.4-48.8 64.1-13.8 12.7-36.1 26.7-64.6 40.5-20.4 9.9-45.4 17.1-76.1 22.1-55.2 8.9-113.5 7.6-168.6-3.7-34.7-7.2-70.2-10.8-105.6-10.8h-50.3v-100c41.6-27.2 92.1-47.9 140.6-57.3 41.2-8 100.2-11.6 147.5 16.6 3.6 2.1 6.7 4.6 9.1 7.4 4.7 5.3 7 11.9 6.6 18.6-.4 6.5-3.5 12.6-8.6 17-1.5 1.3-2.5 1.9-3 2.3-.2 0-.5 0-.7.1-.2 0-.4 0-.6.1-17.9 1.8-36.5 1.8-55.3.1-13.8-1.3-25.9 8.8-27.2 22.5s8.8 25.9 22.5 27.2c21.8 2.1 43.5 2 64.4 0 2-.1 4-.3 5.9-.7 3.9-.5 7.8-1 11.6-1.6 36.7-5.9 66.3-25.3 90.4-43.5l60.2-45.5c12.3-9.3 31.6-9.3 43.9 0 6.9 5.3 12.8 14.8 6.7 24.5zm-382.2-228.9c25.2 18.3 45.1 33.9 76.4 33.9s51.2-15.6 76.4-33.9c24.5-17.8 52.4-40.8 74.5-66.4 21.5-24.9 40.8-56.1 40.8-90 0-54-28.5-95.1-72.2-109.8-37.3-12.6-80.7-4.3-119.4 23.9-38.7-28.2-82.1-36.5-119.4-23.9-43.7 14.7-72.2 55.9-72.2 109.8 0 33.9 19.3 65.1 40.8 90 21.9 25.6 49.8 48.6 74.3 66.4zm-27.1-218.9c21.7-7.3 54.1-2.6 86.6 27.2 9.6 8.8 24.3 8.8 33.8 0 32.4-29.8 64.8-34.5 86.6-27.2 20.8 7 38.2 27.1 38.2 62.4 0 15.6-9.5 35.2-28.6 57.4-18.5 21.5-43.1 41.9-66.1 58.7-28.1 20.5-34.8 24.3-47 24.3s-18.8-3.8-47-24.3c-23-16.8-47.5-37.2-66.1-58.7-19.1-22.2-28.6-41.8-28.6-57.4 0-35.2 17.4-55.3 38.2-62.4z" fill="#1c274c"/></svg>