<svg width="193" height="193" viewBox="0 0 193 193" fill="none" xmlns="http://www.w3.org/2000/svg">
<g opacity="0.1">
<path d="M192.427 108.061C191.948 107.104 190.751 106.625 189.794 106.386C184.289 106.386 136.901 104.471 136.901 49.4239C136.901 47.7485 135.465 46.3125 133.789 46.3125C132.114 46.3125 130.678 47.7485 130.678 49.4239C130.678 104.471 83.2892 106.386 78.0238 106.386C77.3058 106.386 76.5877 106.625 76.1091 107.104C75.6304 107.343 75.3911 107.822 75.1517 108.061C74.6731 109.019 74.6731 110.215 75.1517 111.173C75.6304 112.13 76.8271 112.848 78.0238 112.848C78.0238 112.848 78.0238 112.848 78.2631 112.848C83.7679 112.848 130.917 114.763 130.917 169.81C130.917 171.486 132.353 172.922 134.029 172.922C135.704 172.922 137.14 171.486 137.14 169.81C137.14 115.002 184.289 112.848 189.794 112.848C190.991 112.848 191.948 112.13 192.666 111.173C193.145 110.215 193.145 109.019 192.427 108.061ZM133.789 146.355C126.848 123.618 109.856 113.805 96.4527 109.497C109.856 105.189 126.848 95.3765 133.789 72.6395C140.73 95.3765 157.723 105.189 171.126 109.497C157.723 113.805 140.73 123.618 133.789 146.355Z" fill="#4772FF"/>
<path d="M94.2984 45.8337C95.9738 45.8337 97.4098 44.3977 97.4098 42.483C97.4098 40.8077 95.9738 39.3717 94.2984 39.3717C91.4264 39.3717 65.578 38.4143 65.578 8.25786C65.578 6.58251 64.142 5.14648 62.4666 5.14648C60.7913 5.14648 59.3552 6.58251 59.3552 8.25786C59.3552 38.4143 33.5069 39.3717 30.6348 39.3717C30.3955 39.3717 30.3955 39.3717 30.3955 39.3717C28.7201 39.611 27.5234 40.8077 27.5234 42.483C27.5234 44.1584 28.9595 45.5944 30.6348 45.5944C33.7462 45.5944 59.3552 46.5518 59.3552 76.7082C59.3552 78.3836 60.7913 79.8196 62.4666 79.8196C63.9026 80.0589 65.3386 78.6229 65.3386 76.9475C65.3386 46.7911 91.187 45.8337 94.0591 45.8337H94.2984ZM62.2273 59.4759C58.3979 50.3811 51.4571 45.3551 44.995 42.483C51.9358 39.611 58.3979 34.1062 62.2273 25.4901C66.0567 34.5849 72.9974 39.611 79.4595 42.483C72.5188 45.3551 66.0567 50.8598 62.2273 59.4759Z" fill="#4772FF"/>
<path d="M66.775 147.313C63.9029 147.313 38.0546 146.355 38.0546 116.199C38.0546 114.523 36.6185 113.087 34.9432 113.087C33.2678 113.087 31.8318 114.523 31.8318 116.199C31.8318 146.355 5.98342 147.313 3.11138 147.313C2.87204 147.313 2.87204 147.313 2.87204 147.313C1.19668 147.552 0 148.749 0 150.424C0 152.099 1.43602 153.535 3.11138 153.535C6.22276 153.535 31.8318 154.493 31.8318 184.649C31.8318 186.324 33.2678 187.76 34.9432 187.76C36.3792 188.239 37.8152 186.803 37.8152 184.888C37.8152 154.732 63.6636 153.775 66.5356 153.775H66.775C68.4503 153.775 69.8863 152.339 69.8863 150.424C69.8863 148.749 68.4503 147.313 66.775 147.313ZM34.7038 167.656C30.6351 158.561 23.9337 153.535 17.4716 150.663C24.4124 147.791 30.8744 142.286 34.7038 133.67C38.5332 142.765 45.474 147.791 51.9361 150.663C44.9953 153.535 38.5332 159.04 34.7038 167.656Z" fill="#4772FF"/>
</g>
</svg>
